<?xml version="1.0" encoding="utf-8"?>
<!-- Generator: Adobe Illustrator 16.0.0, SVG Export Plug-In . SVG Version: 6.00 Build 0)  -->
<!DOCTYPE svg PUBLIC "-//W3C//DTD SVG 1.1//EN" "http://www.w3.org/Graphics/SVG/1.1/DTD/svg11.dtd">
<svg version="1.1" id="Layer_1" xmlns="http://www.w3.org/2000/svg" xmlns:xlink="http://www.w3.org/1999/xlink" x="0px" y="0px"
	 width="128px" height="128px" viewBox="0 0 128 128" enable-background="new 0 0 128 128" xml:space="preserve">
<g>
	<rect fill="#FFFFFF" width="128" height="128"/>
	<g>
		<g>
			<linearGradient id="SVGID_1_" gradientUnits="userSpaceOnUse" x1="45.0273" y1="48.2402" x2="45.0273" y2="48.2402">
				<stop  offset="0" style="stop-color:#26A9E0"/>
				<stop  offset="1" style="stop-color:#2F80ED"/>
			</linearGradient>
			<path fill="url(#SVGID_1_)" d="M45.027,48.24"/>
			<linearGradient id="SVGID_2_" gradientUnits="userSpaceOnUse" x1="122.4077" y1="51.0537" x2="20.3567" y2="51.0537">
				<stop  offset="0" style="stop-color:#26A9E0"/>
				<stop  offset="1" style="stop-color:#2F80ED"/>
			</linearGradient>
			<path fill="url(#SVGID_2_)" d="M72.668,22.08c-9.743-6.279-23.776,1.602-31.344,17.601c-0.472,0.996-1.492,3.252-1.892,4.261
				c0,0,3.075-1.514,3.203-1.783c0.163-0.346,0.915-1.938,1.084-2.273c6.977-13.882,19.046-20.786,27.003-15.658
				c8.147,5.254,8.473,21.258,1.584,35.816c-6.886,14.563-18.378,22.17-26.527,16.916c-3.335-2.148-5.511-6.146-6.457-11.107
				c-0.829,0.106-1.633,0.018-2.217-0.096c1.044,6.287,3.795,11.462,8.153,14.271c9.742,6.279,23.776-1.601,31.345-17.602
				C84.172,46.424,82.41,28.359,72.668,22.08z"/>
			<g>
				<linearGradient id="SVGID_3_" gradientUnits="userSpaceOnUse" x1="122.4121" y1="58.1865" x2="20.3556" y2="58.1865">
					<stop  offset="0" style="stop-color:#26A9E0"/>
					<stop  offset="1" style="stop-color:#2F80ED"/>
				</linearGradient>
				<ellipse fill="url(#SVGID_3_)" cx="38.614" cy="58.187" rx="6.407" ry="6.335"/>
				<g>
					<linearGradient id="SVGID_4_" gradientUnits="userSpaceOnUse" x1="122.4063" y1="50.5791" x2="20.3575" y2="50.5791">
						<stop  offset="0" style="stop-color:#26A9E0"/>
						<stop  offset="1" style="stop-color:#2F80ED"/>
					</linearGradient>
					<path fill="url(#SVGID_4_)" d="M38.614,50.322c4.376,0,7.936,3.527,7.936,7.864c0,1.438-0.398,2.784-1.083,3.946h19.561
						C58.62,72.838,50.846,75.005,46.197,72.521c-3.907-2.084-5.06-5.836-5.255-6.601c0.334,1.449,0.719,2.821,1.2,4.081
						c1.743,4.105,4.918,7.093,9.275,7.093c8.262,0,15.759-9.776,19.509-17.704c6.599-13.949,6.302-29.148-1.031-33.877
						c-6.368-4.103-15.851,0.796-22.44,10.93c11.482-15.662,22.432-12.555,24.422-1.934c0.235,1.253,0.356,2.609,0.372,4.039
						c-2.82-0.397-5.365-0.637-7.643-0.771c-8.966-0.529-8.966,0.926-22.243,8.471c-17,0.168-22.823,6.955-22.823,6.955v1.744
						c1.509-0.599,4.613-1.609,8.384-1.609l-2.795,5.481c0,0-3.671,0.461-5.589,0.821v2.492h12.22
						c-0.684-1.162-1.083-2.508-1.083-3.946C30.678,53.85,34.238,50.322,38.614,50.322z M59.343,40.529
						c2.157-0.44,6.901-0.249,12.826,0.634c-0.133,1.841-0.427,3.772-0.867,5.747c-5.605,0.078-10.751-0.104-15.716-0.021
						c0.364-0.609,0.566-1.374-0.114-1.826c-0.888-0.593-2.441,0.367-3.606,1.948c-1.752,0.09-3.491,0.229-5.229,0.447
						C46.637,47.459,55.133,41.389,59.343,40.529z"/>
				</g>
			</g>
			<g>
				<linearGradient id="SVGID_5_" gradientUnits="userSpaceOnUse" x1="122.4067" y1="51.3896" x2="20.3577" y2="51.3897">
					<stop  offset="0" style="stop-color:#26A9E0"/>
					<stop  offset="1" style="stop-color:#2F80ED"/>
				</linearGradient>
				<path fill="url(#SVGID_5_)" d="M103.553,50.907c0.083-0.271,0.156-0.547,0.212-0.827c-0.081-0.032-0.162-0.061-0.244-0.091
					c-0.016-0.005-0.032-0.011-0.048-0.017c-0.347-0.119-0.704-0.221-1.07-0.298c-0.018-0.003-0.036-0.007-0.054-0.011
					c-0.059-0.013-0.116-0.022-0.175-0.034c-0.022-0.003-0.044-0.007-0.066-0.011c-0.058-0.01-0.117-0.02-0.176-0.03
					c-0.018-0.001-0.037-0.003-0.056-0.007c-0.154-0.023-0.31-0.041-0.466-0.057c-0.023,0-0.045-0.002-0.068-0.005
					c-0.056-0.005-0.112-0.009-0.167-0.013c-0.027,0-0.053-0.002-0.08-0.005c-0.056-0.001-0.11-0.005-0.167-0.005
					c-0.023-0.002-0.047-0.004-0.072-0.005c-0.079-0.001-0.157-0.003-0.237-0.003c-0.671,0-1.325,0.078-1.952,0.222
					c0.664-0.229,1.358-0.395,2.079-0.486c3.912,0,3.382-2.494,2.544-4.458c-0.142-0.332-0.296-0.675-0.463-1.021
					c0-0.003-0.002-0.007-0.003-0.01c-0.043-0.089-0.086-0.178-0.131-0.267c-0.003-0.008-0.007-0.015-0.011-0.023
					c-0.042-0.084-0.086-0.172-0.13-0.257c-0.005-0.013-0.012-0.022-0.017-0.032c-0.043-0.086-0.086-0.168-0.13-0.252
					c-0.007-0.013-0.014-0.027-0.021-0.041c-0.044-0.082-0.088-0.164-0.133-0.246c-0.009-0.016-0.017-0.028-0.025-0.045
					c-0.044-0.08-0.089-0.16-0.136-0.242c-0.008-0.016-0.018-0.031-0.026-0.048c-0.047-0.079-0.093-0.159-0.141-0.24
					c-0.008-0.015-0.018-0.03-0.027-0.047c-0.047-0.079-0.096-0.159-0.146-0.239c-0.008-0.014-0.017-0.027-0.026-0.041
					c-0.05-0.082-0.102-0.166-0.154-0.246c-0.004-0.008-0.008-0.014-0.013-0.021c-0.225-0.35-0.464-0.695-0.716-1.032
					c-0.014-0.019-0.027-0.036-0.042-0.056c-0.044-0.057-0.089-0.113-0.133-0.172c-0.027-0.035-0.053-0.068-0.082-0.103
					c-0.04-0.051-0.081-0.101-0.122-0.151c-0.033-0.039-0.065-0.078-0.098-0.117c-0.04-0.048-0.079-0.094-0.119-0.139
					c-0.036-0.044-0.072-0.083-0.107-0.125c-0.039-0.045-0.079-0.087-0.118-0.132c-0.038-0.042-0.076-0.085-0.116-0.125
					c-0.038-0.043-0.078-0.083-0.117-0.124c-0.04-0.044-0.081-0.085-0.121-0.127c-0.041-0.039-0.08-0.079-0.12-0.117
					c-0.042-0.043-0.084-0.084-0.128-0.125c-0.039-0.038-0.079-0.074-0.119-0.112c-0.045-0.042-0.089-0.083-0.134-0.122
					c-0.04-0.036-0.08-0.071-0.121-0.107c-0.046-0.04-0.092-0.08-0.14-0.118c-0.04-0.034-0.081-0.069-0.123-0.103
					c-0.047-0.039-0.095-0.076-0.143-0.113c-0.042-0.033-0.083-0.065-0.126-0.097c-0.05-0.038-0.099-0.073-0.148-0.11
					c-0.042-0.031-0.085-0.062-0.127-0.091c-0.051-0.036-0.103-0.07-0.154-0.104c-0.043-0.029-0.087-0.058-0.13-0.085
					c-0.053-0.035-0.106-0.067-0.16-0.101c-0.042-0.025-0.086-0.053-0.13-0.078c-0.055-0.033-0.111-0.063-0.167-0.094
					c-0.043-0.026-0.086-0.05-0.13-0.072c-0.058-0.032-0.117-0.062-0.175-0.091c-0.043-0.022-0.085-0.044-0.128-0.065
					c-0.063-0.028-0.126-0.058-0.189-0.085c-0.042-0.019-0.082-0.038-0.123-0.056c-0.071-0.029-0.143-0.057-0.214-0.086
					c-0.033-0.011-0.064-0.025-0.097-0.037c-0.002-0.001-0.005-0.002-0.008-0.004c-0.108-0.039-0.215-0.078-0.326-0.112
					l-0.604,1.362l-0.187,0.423c-0.232,0.524-0.185,1.12,0.107,1.595l-0.995,0.741c-0.231,0.174-0.315,0.479-0.204,0.745
					l0.035,0.082c0.229,0.547,0.008,1.179-0.512,1.464l-0.681,0.373l-1.36-2.356c-0.086-0.15-0.219-0.264-0.375-0.329
					c-0.093-0.038-0.194-0.059-0.297-0.059c-0.334,0-0.597,0.201-0.714,0.468l-0.911,0.555c-0.144,0.087-0.231,0.23-0.255,0.385
					c-0.007-0.003-0.015-0.006-0.023-0.01c-0.03-0.014-0.06-0.026-0.09-0.041c-0.02-0.008-0.037-0.015-0.056-0.023
					c-0.03-0.013-0.061-0.025-0.093-0.04c-0.018-0.008-0.038-0.017-0.058-0.024c-0.031-0.014-0.062-0.026-0.093-0.039
					c-0.021-0.01-0.042-0.018-0.063-0.026c-0.031-0.013-0.064-0.026-0.095-0.041c-0.052-0.019-0.103-0.038-0.155-0.061
					c-0.021-0.008-0.041-0.017-0.062-0.023c-0.035-0.015-0.07-0.028-0.105-0.042c-0.02-0.007-0.039-0.015-0.059-0.022
					c-0.037-0.014-0.074-0.027-0.11-0.041c-0.019-0.008-0.037-0.015-0.057-0.021c-0.038-0.015-0.078-0.029-0.116-0.045
					c-0.018-0.005-0.035-0.011-0.053-0.018c-0.041-0.016-0.082-0.029-0.125-0.045c-0.016-0.006-0.032-0.011-0.047-0.016
					c-0.043-0.016-0.087-0.031-0.132-0.047c-0.013-0.004-0.027-0.01-0.041-0.014c-0.047-0.018-0.093-0.032-0.141-0.047
					c-0.01-0.004-0.021-0.007-0.03-0.011c-0.051-0.016-0.103-0.032-0.155-0.05c-0.002-0.001-0.006-0.002-0.007-0.004
					c-1.855-0.592-4.119-0.998-5.917-0.463c0.221,6.734-1.293,14.285-4.671,21.429c-0.1,0.211-0.202,0.421-0.304,0.628
					c-0.007,0.098-0.011,0.194-0.011,0.292h0.033h1.49h12.835h2.132l-0.488-1.9c-0.42-1.64-0.413-3.339-0.007-4.927
					c0.011,0.004,0.024,0.008,0.035,0.012c0.02,0.007,0.04,0.014,0.058,0.02c0.056,0.021,0.114,0.038,0.171,0.058
					c0.018,0.006,0.036,0.013,0.054,0.018c0.07,0.022,0.141,0.044,0.211,0.065c0.002,0,0.005,0,0.007,0.001
					c0.032,0.01,0.064,0.019,0.097,0.027c-0.09,0.474-0.137,0.962-0.137,1.462c0,4.33,3.511,7.84,7.841,7.84s7.84-3.51,7.84-7.84
					C108.459,54.887,106.43,52.068,103.553,50.907z M91.431,44.441l-0.49-0.876c-0.201-0.358-0.488-0.66-0.833-0.88
					c-0.004-0.002-0.008-0.006-0.011-0.008l0.5-0.305l1.107,1.919L91.431,44.441z M100.62,62.822c-2.565,0-4.643-2.078-4.643-4.643
					c0-0.41,0.053-0.808,0.154-1.188c0.306-0.031,0.607-0.076,0.903-0.139c-0.153,0.413-0.236,0.859-0.236,1.326
					c0,2.111,1.71,3.822,3.822,3.822c2.111,0,3.822-1.711,3.822-3.822c0-1.83-1.287-3.359-3.003-3.734
					c0.213-0.217,0.417-0.444,0.608-0.684c1.864,0.602,3.215,2.353,3.215,4.418C105.262,60.744,103.184,62.822,100.62,62.822z"/>
			</g>
		</g>
		<g>
			<linearGradient id="SVGID_6_" gradientUnits="userSpaceOnUse" x1="122.4033" y1="96.2803" x2="20.3567" y2="96.2803">
				<stop  offset="0" style="stop-color:#26A9E0"/>
				<stop  offset="1" style="stop-color:#2F80ED"/>
			</linearGradient>
			<path fill="url(#SVGID_6_)" d="M22.552,102.559c-0.939,0-1.784-0.154-2.532-0.464c-0.748-0.311-1.375-0.745-1.881-1.308
				c-0.507-0.562-0.864-1.227-1.071-1.995c-0.209-0.769-0.25-1.605-0.124-2.512c0.129-0.917,0.404-1.757,0.826-2.521
				c0.422-0.762,0.964-1.424,1.627-1.985c0.663-0.563,1.413-0.999,2.247-1.308c0.834-0.31,1.722-0.465,2.662-0.465
				c0.952,0,1.799,0.155,2.541,0.465c0.742,0.309,1.367,0.745,1.873,1.308c0.507,0.562,0.864,1.224,1.073,1.985
				c0.208,0.764,0.249,1.604,0.12,2.521c-0.126,0.906-0.401,1.743-0.823,2.512c-0.423,0.769-0.966,1.434-1.629,1.995
				c-0.663,0.563-1.409,0.997-2.238,1.308C24.394,102.404,23.504,102.559,22.552,102.559z M23.032,99.119
				c0.517,0,0.994-0.121,1.436-0.361c0.441-0.241,0.808-0.576,1.104-1.006c0.295-0.432,0.481-0.921,0.558-1.472
				c0.077-0.55,0.027-1.04-0.147-1.471c-0.175-0.429-0.449-0.766-0.822-1.006c-0.374-0.241-0.819-0.361-1.335-0.361
				c-0.516,0-0.994,0.12-1.435,0.361c-0.44,0.24-0.809,0.577-1.104,1.006c-0.296,0.431-0.482,0.921-0.558,1.471
				c-0.077,0.551-0.028,1.04,0.147,1.472c0.174,0.43,0.449,0.765,0.822,1.006C22.072,98.998,22.517,99.119,23.032,99.119z"/>
			<linearGradient id="SVGID_7_" gradientUnits="userSpaceOnUse" x1="122.4043" y1="96.3662" x2="20.3567" y2="96.3662">
				<stop  offset="0" style="stop-color:#26A9E0"/>
				<stop  offset="1" style="stop-color:#2F80ED"/>
			</linearGradient>
			<path fill="url(#SVGID_7_)" d="M33.464,102.387l1.24-8.875h-3.716l0.442-3.166H42.68l-0.442,3.166h-3.819l-1.239,8.875H33.464z"
				/>
			<linearGradient id="SVGID_8_" gradientUnits="userSpaceOnUse" x1="122.4087" y1="96.2803" x2="20.3562" y2="96.2803">
				<stop  offset="0" style="stop-color:#26A9E0"/>
				<stop  offset="1" style="stop-color:#2F80ED"/>
			</linearGradient>
			<path fill="url(#SVGID_8_)" d="M48.147,102.559c-0.94,0-1.784-0.154-2.533-0.464c-0.748-0.311-1.375-0.745-1.881-1.308
				c-0.507-0.562-0.864-1.227-1.072-1.995c-0.208-0.769-0.25-1.605-0.123-2.512c0.128-0.917,0.403-1.757,0.825-2.521
				c0.422-0.762,0.964-1.424,1.628-1.985c0.663-0.563,1.412-0.999,2.246-1.308c0.835-0.31,1.722-0.465,2.663-0.465
				c0.951,0,1.799,0.155,2.542,0.465c0.741,0.309,1.366,0.745,1.873,1.308c0.507,0.562,0.863,1.224,1.072,1.985
				c0.209,0.764,0.25,1.604,0.121,2.521c-0.126,0.906-0.401,1.743-0.824,2.512c-0.422,0.769-0.965,1.434-1.628,1.995
				c-0.663,0.563-1.41,0.997-2.239,1.308C49.989,102.404,49.099,102.559,48.147,102.559z M48.627,99.119
				c0.516,0,0.995-0.121,1.435-0.361c0.44-0.241,0.809-0.576,1.104-1.006c0.296-0.432,0.482-0.921,0.558-1.472
				c0.078-0.55,0.028-1.04-0.147-1.471c-0.175-0.429-0.449-0.766-0.822-1.006c-0.374-0.241-0.818-0.361-1.335-0.361
				c-0.516,0-0.994,0.12-1.435,0.361c-0.441,0.24-0.808,0.577-1.104,1.006c-0.295,0.431-0.48,0.921-0.558,1.471
				c-0.076,0.551-0.027,1.04,0.147,1.472c0.175,0.43,0.45,0.765,0.823,1.006C47.667,98.998,48.111,99.119,48.627,99.119z"/>
			<linearGradient id="SVGID_9_" gradientUnits="userSpaceOnUse" x1="122.4106" y1="96.2803" x2="20.3546" y2="96.2803">
				<stop  offset="0" style="stop-color:#26A9E0"/>
				<stop  offset="1" style="stop-color:#2F80ED"/>
			</linearGradient>
			<path fill="url(#SVGID_9_)" d="M60.91,102.559c-1.364,0-2.458-0.221-3.279-0.661c-0.821-0.442-1.489-1.035-2.004-1.781
				l2.486-2.408c0.471,0.734,1.003,1.219,1.594,1.454c0.593,0.235,1.163,0.353,1.714,0.353c0.333,0,0.608-0.046,0.828-0.138
				c0.219-0.092,0.346-0.258,0.379-0.499c0.026-0.183-0.027-0.335-0.159-0.456c-0.133-0.12-0.308-0.218-0.526-0.292
				c-0.22-0.074-0.441-0.138-0.662-0.189c-0.223-0.052-0.417-0.095-0.584-0.129c-1.342-0.32-2.309-0.791-2.898-1.411
				c-0.591-0.618-0.813-1.45-0.667-2.493c0.082-0.586,0.291-1.118,0.627-1.601c0.337-0.481,0.756-0.895,1.257-1.238
				c0.5-0.344,1.054-0.607,1.658-0.791s1.217-0.275,1.836-0.275c0.905,0,1.651,0.084,2.236,0.25
				c0.584,0.166,1.062,0.403,1.431,0.714c0.37,0.31,0.675,0.67,0.916,1.083l-2.458,2.082c-0.327-0.368-0.694-0.634-1.101-0.8
				c-0.407-0.167-0.828-0.25-1.264-0.25c-0.391,0-0.703,0.046-0.939,0.138s-0.37,0.247-0.401,0.464
				c-0.027,0.195,0.063,0.351,0.271,0.465c0.208,0.114,0.45,0.204,0.728,0.267c0.277,0.063,0.506,0.111,0.685,0.146
				c0.814,0.16,1.53,0.393,2.147,0.696c0.617,0.304,1.076,0.717,1.375,1.239c0.3,0.521,0.391,1.2,0.274,2.038
				c-0.123,0.883-0.447,1.623-0.973,2.218c-0.525,0.598-1.181,1.048-1.969,1.351C62.68,102.406,61.828,102.559,60.91,102.559z"/>
			<linearGradient id="SVGID_10_" gradientUnits="userSpaceOnUse" x1="122.4048" y1="96.3662" x2="20.359" y2="96.3662">
				<stop  offset="0" style="stop-color:#26A9E0"/>
				<stop  offset="1" style="stop-color:#2F80ED"/>
			</linearGradient>
			<path fill="url(#SVGID_10_)" d="M66.025,102.387l6.515-12.041h2.924l3.117,12.041h-3.681l-0.404-1.789h-3.956l-0.903,1.789
				H66.025z M72.3,97.123l-0.477,0.947h2.099l-0.213-0.947c-0.107-0.459-0.193-0.834-0.255-1.126
				c-0.063-0.293-0.112-0.593-0.148-0.904c-0.136,0.312-0.278,0.611-0.428,0.904C72.728,96.289,72.535,96.664,72.3,97.123z"/>
			<linearGradient id="SVGID_11_" gradientUnits="userSpaceOnUse" x1="122.4072" y1="96.3662" x2="20.357" y2="96.3662">
				<stop  offset="0" style="stop-color:#26A9E0"/>
				<stop  offset="1" style="stop-color:#2F80ED"/>
			</linearGradient>
			<path fill="url(#SVGID_11_)" d="M79.614,102.387l1.682-12.041h3.715l-1.239,8.876h5.161l-0.442,3.165H79.614z"/>
			<linearGradient id="SVGID_12_" gradientUnits="userSpaceOnUse" x1="122.4063" y1="96.3662" x2="20.3584" y2="96.3662">
				<stop  offset="0" style="stop-color:#26A9E0"/>
				<stop  offset="1" style="stop-color:#2F80ED"/>
			</linearGradient>
			<path fill="url(#SVGID_12_)" d="M90.209,102.387l1.682-12.041h8.996l-0.42,3.011h-5.435l-0.214,1.53h4.799l-0.395,2.821h-4.799
				l-0.233,1.669h5.746l-0.421,3.01H90.209z"/>
			<linearGradient id="SVGID_13_" gradientUnits="userSpaceOnUse" x1="122.4087" y1="96.2803" x2="20.3483" y2="96.2803">
				<stop  offset="0" style="stop-color:#26A9E0"/>
				<stop  offset="1" style="stop-color:#2F80ED"/>
			</linearGradient>
			<path fill="url(#SVGID_13_)" d="M105.89,102.559c-1.364,0-2.458-0.221-3.279-0.661c-0.822-0.442-1.489-1.035-2.005-1.781
				l2.486-2.408c0.471,0.734,1.003,1.219,1.595,1.454c0.592,0.235,1.163,0.353,1.714,0.353c0.333,0,0.608-0.046,0.828-0.138
				c0.219-0.092,0.345-0.258,0.379-0.499c0.026-0.183-0.027-0.335-0.159-0.456c-0.133-0.12-0.308-0.218-0.527-0.292
				c-0.22-0.074-0.441-0.138-0.662-0.189c-0.223-0.052-0.418-0.095-0.585-0.129c-1.342-0.32-2.309-0.791-2.898-1.411
				c-0.591-0.618-0.813-1.45-0.667-2.493c0.082-0.586,0.291-1.118,0.627-1.601c0.337-0.481,0.756-0.895,1.257-1.238
				s1.054-0.607,1.659-0.791s1.217-0.275,1.836-0.275c0.905,0,1.651,0.084,2.236,0.25c0.584,0.166,1.061,0.403,1.431,0.714
				c0.37,0.31,0.675,0.67,0.916,1.083l-2.458,2.082c-0.327-0.368-0.694-0.634-1.101-0.8c-0.407-0.167-0.828-0.25-1.264-0.25
				c-0.39,0-0.703,0.046-0.939,0.138s-0.371,0.247-0.401,0.464c-0.028,0.195,0.063,0.351,0.271,0.465
				c0.208,0.114,0.45,0.204,0.728,0.267c0.277,0.063,0.506,0.111,0.685,0.146c0.814,0.16,1.53,0.393,2.147,0.696
				c0.616,0.304,1.075,0.717,1.375,1.239c0.299,0.521,0.391,1.2,0.274,2.038c-0.124,0.883-0.448,1.623-0.973,2.218
				c-0.525,0.598-1.181,1.048-1.969,1.351C107.66,102.406,106.808,102.559,105.89,102.559z"/>
		</g>
	</g>
</g>
</svg>
