<?xml version="1.0" encoding="utf-8"?>
<!-- Generator: Adobe Illustrator 16.0.0, SVG Export Plug-In . SVG Version: 6.00 Build 0)  -->
<!DOCTYPE svg PUBLIC "-//W3C//DTD SVG 1.1//EN" "http://www.w3.org/Graphics/SVG/1.1/DTD/svg11.dtd">
<svg version="1.1" id="Layer_1" xmlns="http://www.w3.org/2000/svg" xmlns:xlink="http://www.w3.org/1999/xlink" x="0px" y="0px"
	 width="512px" height="512px" viewBox="0 0 512 512" enable-background="new 0 0 512 512" xml:space="preserve">
<g>
	
		<linearGradient id="SVGID_1_" gradientUnits="userSpaceOnUse" x1="8.3601" y1="280.0547" x2="520.3596" y2="280.0547" gradientTransform="matrix(1 0 0 -1 -8.3599 536.0547)">
		<stop  offset="0" style="stop-color:#26A9E0"/>
		<stop  offset="1" style="stop-color:#2F80ED"/>
	</linearGradient>
	<rect x="0" fill="url(#SVGID_1_)" width="512" height="512"/>
	<g>
		<g>
			<path fill="#FFFFFF" d="M180.109,192.963"/>
			<path fill="#FFFFFF" d="M290.669,88.32c-38.968-25.119-95.103,6.405-125.373,70.402c-1.886,3.984-5.967,13.009-7.564,17.043
				c0,0,12.302-6.056,12.813-7.135c0.648-1.381,3.66-7.75,4.334-9.091c27.907-55.528,76.186-83.146,108.012-62.632
				c32.588,21.016,33.892,85.027,6.338,143.266c-27.546,58.25-73.512,88.677-106.104,67.664
				c-13.343-8.597-22.044-24.585-25.833-44.433c-3.315,0.427-6.529,0.072-8.866-0.381c4.175,25.148,15.181,45.848,32.614,57.082
				c38.965,25.115,95.104-6.405,125.378-70.408C336.688,185.695,329.639,113.439,290.669,88.32z"/>
			<g>
				<path fill="#FFFFFF" d="M154.459,207.408c-14.154,0-25.628,11.345-25.628,25.339c0,13.991,11.474,25.338,25.628,25.338
					c14.151,0,25.626-11.347,25.626-25.338C180.085,218.753,168.611,207.408,154.459,207.408z"/>
				<g>
					<path fill="#FFFFFF" d="M154.459,201.29c17.503,0,31.744,14.109,31.744,31.457c0,5.753-1.595,11.137-4.331,15.783h78.245
						c-25.638,42.819-56.731,51.487-75.331,41.558c-15.628-8.338-20.238-23.344-21.021-26.404
						c1.338,5.799,2.875,11.286,4.799,16.322c6.974,16.424,19.674,28.372,37.102,28.372c33.049,0,63.037-39.106,78.034-70.817
						c26.396-55.795,25.206-116.594-4.122-135.506c-25.471-16.411-63.405,3.184-89.759,43.717
						c45.928-62.646,89.726-50.217,97.689-7.731c0.938,5.012,1.422,10.438,1.484,16.155c-11.279-1.589-21.459-2.549-30.568-3.086
						c-35.866-2.115-35.866,3.705-88.97,33.882c-68.004,0.671-91.292,27.819-91.292,27.819v6.977
						c6.037-2.394,18.454-6.434,33.537-6.434l-11.183,21.924c0,0-14.682,1.845-22.354,3.287v9.966h48.882
						c-2.736-4.646-4.331-10.03-4.331-15.783C122.713,215.399,136.953,201.29,154.459,201.29z M237.372,162.119
						c8.628-1.763,27.604-0.997,51.303,2.533c-0.532,7.363-1.709,15.089-3.468,22.988c-22.42,0.313-43.006-0.412-62.862-0.083
						c1.456-2.436,2.265-5.493-0.458-7.305c-3.553-2.372-9.765,1.47-14.425,7.793c-7.008,0.362-13.96,0.917-20.915,1.789
						C186.547,189.835,220.53,165.555,237.372,162.119z"/>
				</g>
			</g>
			<g>
				<path fill="#FFFFFF" d="M414.213,203.628c0.333-1.082,0.622-2.186,0.848-3.308c-0.323-0.128-0.649-0.244-0.976-0.363
					c-0.064-0.021-0.131-0.042-0.192-0.066c-1.39-0.479-2.815-0.882-4.28-1.192c-0.068-0.013-0.143-0.027-0.213-0.043
					c-0.235-0.049-0.463-0.088-0.701-0.137c-0.088-0.013-0.177-0.024-0.264-0.043c-0.235-0.04-0.468-0.079-0.703-0.119
					c-0.073-0.003-0.149-0.015-0.227-0.03c-0.616-0.092-1.238-0.161-1.864-0.223c-0.093-0.003-0.18-0.012-0.271-0.021
					c-0.225-0.018-0.446-0.033-0.669-0.049c-0.104-0.003-0.21-0.012-0.318-0.021c-0.222-0.003-0.44-0.021-0.667-0.021
					c-0.095-0.007-0.189-0.013-0.287-0.019c-0.317-0.003-0.629-0.013-0.948-0.013c-2.686,0-5.299,0.312-7.808,0.888
					c2.654-0.918,5.436-1.579,8.316-1.945c15.646,0,13.53-9.976,10.177-17.832c-0.566-1.329-1.186-2.698-1.852-4.082
					c-0.005-0.01-0.011-0.028-0.017-0.04c-0.171-0.354-0.343-0.71-0.521-1.067c-0.012-0.03-0.03-0.058-0.044-0.091
					c-0.167-0.339-0.343-0.687-0.52-1.028c-0.021-0.049-0.046-0.088-0.067-0.131c-0.173-0.341-0.347-0.668-0.523-1.006
					c-0.029-0.052-0.056-0.109-0.085-0.162c-0.175-0.332-0.351-0.658-0.531-0.987c-0.035-0.061-0.067-0.112-0.102-0.18
					c-0.178-0.317-0.355-0.641-0.542-0.967c-0.034-0.063-0.072-0.125-0.106-0.192c-0.186-0.316-0.372-0.637-0.562-0.96
					c-0.034-0.061-0.073-0.122-0.109-0.188c-0.189-0.317-0.385-0.638-0.582-0.958c-0.032-0.052-0.067-0.106-0.103-0.164
					c-0.203-0.329-0.407-0.662-0.616-0.985c-0.017-0.03-0.033-0.052-0.052-0.082c-0.897-1.399-1.854-2.783-2.864-4.131
					c-0.058-0.073-0.109-0.146-0.167-0.223c-0.175-0.226-0.354-0.454-0.53-0.688c-0.11-0.14-0.213-0.274-0.325-0.411
					c-0.161-0.204-0.326-0.402-0.491-0.604c-0.129-0.156-0.257-0.314-0.39-0.47c-0.155-0.192-0.315-0.378-0.475-0.555
					c-0.143-0.177-0.287-0.333-0.43-0.503c-0.155-0.177-0.313-0.345-0.472-0.524c-0.151-0.168-0.308-0.339-0.462-0.5
					c-0.154-0.174-0.313-0.333-0.471-0.497c-0.16-0.177-0.325-0.339-0.485-0.506c-0.16-0.159-0.32-0.317-0.478-0.473
					c-0.169-0.168-0.34-0.333-0.514-0.5c-0.155-0.149-0.315-0.296-0.478-0.448c-0.178-0.168-0.354-0.329-0.533-0.488
					c-0.163-0.144-0.321-0.283-0.486-0.427c-0.186-0.161-0.369-0.32-0.559-0.476c-0.161-0.137-0.324-0.277-0.492-0.411
					c-0.189-0.152-0.381-0.302-0.572-0.451c-0.167-0.132-0.333-0.263-0.503-0.388c-0.198-0.149-0.396-0.293-0.594-0.438
					c-0.169-0.125-0.339-0.247-0.51-0.366c-0.204-0.144-0.411-0.28-0.615-0.415c-0.175-0.118-0.347-0.231-0.52-0.341
					c-0.21-0.141-0.425-0.271-0.64-0.402c-0.172-0.104-0.346-0.214-0.521-0.314c-0.219-0.131-0.442-0.253-0.666-0.375
					c-0.175-0.104-0.346-0.198-0.522-0.29c-0.231-0.128-0.466-0.243-0.701-0.362c-0.17-0.089-0.34-0.177-0.512-0.259
					c-0.251-0.116-0.503-0.232-0.757-0.342c-0.166-0.073-0.329-0.152-0.488-0.223c-0.285-0.116-0.575-0.226-0.858-0.342
					c-0.13-0.045-0.258-0.104-0.387-0.152c-0.009-0.003-0.021-0.006-0.032-0.012c-0.431-0.159-0.861-0.314-1.302-0.451l-2.416,5.448
					l-0.747,1.691c-0.928,2.098-0.738,4.482,0.43,6.382l-3.979,2.963c-0.925,0.695-1.257,1.918-0.814,2.979l0.141,0.329
					c0.917,2.187,0.033,4.717-2.048,5.857l-2.724,1.49l-5.438-9.424c-0.347-0.604-0.876-1.058-1.5-1.316
					c-0.372-0.155-0.775-0.235-1.189-0.235c-1.335,0-2.387,0.805-2.854,1.872l-3.646,2.22c-0.573,0.345-0.925,0.921-1.018,1.536
					c-0.027-0.012-0.059-0.024-0.093-0.036c-0.116-0.055-0.24-0.106-0.361-0.165c-0.076-0.03-0.148-0.061-0.224-0.094
					c-0.121-0.052-0.243-0.104-0.368-0.162c-0.075-0.03-0.154-0.067-0.232-0.098c-0.125-0.052-0.247-0.104-0.374-0.155
					c-0.081-0.037-0.165-0.07-0.251-0.106c-0.125-0.052-0.256-0.104-0.383-0.162c-0.206-0.076-0.41-0.155-0.617-0.243
					c-0.084-0.031-0.165-0.064-0.247-0.095c-0.139-0.059-0.28-0.11-0.421-0.165c-0.078-0.03-0.155-0.061-0.234-0.092
					c-0.146-0.055-0.294-0.109-0.441-0.164c-0.073-0.03-0.148-0.058-0.225-0.082c-0.153-0.059-0.313-0.119-0.466-0.178
					c-0.068-0.021-0.139-0.045-0.209-0.072c-0.165-0.062-0.328-0.119-0.495-0.181c-0.065-0.021-0.128-0.042-0.188-0.063
					c-0.175-0.062-0.35-0.125-0.529-0.187c-0.052-0.015-0.108-0.036-0.165-0.055c-0.188-0.067-0.372-0.128-0.561-0.188
					c-0.038-0.013-0.081-0.024-0.122-0.04c-0.204-0.063-0.41-0.131-0.622-0.201c-0.01-0.003-0.021-0.009-0.029-0.013
					c-7.419-2.368-16.474-3.993-23.662-1.854c0.881,26.939-5.175,57.141-18.687,85.714c-0.401,0.845-0.811,1.683-1.218,2.512
					c-0.026,0.391-0.044,0.778-0.044,1.168h0.131h5.96h51.341h8.528l-1.956-7.601c-1.68-6.558-1.648-13.354-0.027-19.707
					c0.046,0.015,0.098,0.03,0.142,0.046c0.078,0.027,0.156,0.055,0.232,0.079c0.226,0.082,0.453,0.152,0.681,0.231
					c0.07,0.021,0.144,0.049,0.216,0.07c0.281,0.088,0.564,0.174,0.846,0.259c0.009,0,0.021,0.003,0.026,0.006
					c0.128,0.04,0.256,0.076,0.386,0.11c-0.357,1.894-0.546,3.848-0.546,5.845c0,17.323,14.04,31.362,31.361,31.362
					c17.32,0,31.36-14.039,31.36-31.362C433.838,219.549,425.72,208.274,414.213,203.628z M365.723,177.766l-1.96-3.504
					c-0.803-1.436-1.953-2.64-3.333-3.518c-0.016-0.01-0.03-0.024-0.047-0.031l2.004-1.219l4.431,7.674L365.723,177.766z
					 M402.479,251.29c-10.258,0-18.57-8.314-18.57-18.573c0-1.638,0.212-3.229,0.615-4.747c1.224-0.125,2.428-0.305,3.611-0.558
					c-0.608,1.655-0.943,3.438-0.943,5.305c0,8.445,6.842,15.289,15.288,15.289c8.442,0,15.291-6.844,15.291-15.289
					c0-7.32-5.146-13.437-12.014-14.937c0.854-0.868,1.669-1.777,2.432-2.734c7.46,2.408,12.863,9.411,12.863,17.671
					C421.05,242.976,412.735,251.29,402.479,251.29z"/>
			</g>
		</g>
		<g enable-background="new    ">
			<path fill="#FFFFFF" d="M90.192,410.3c-3.762,0-7.138-0.618-10.13-1.856c-2.992-1.239-5.5-2.982-7.525-5.229
				c-2.026-2.247-3.456-4.908-4.287-7.981c-0.833-3.072-0.996-6.421-0.49-10.045c0.512-3.67,1.611-7.029,3.3-10.08
				c1.687-3.051,3.857-5.7,6.511-7.947c2.653-2.247,5.648-3.991,8.986-5.229c3.338-1.239,6.887-1.858,10.649-1.858
				c3.807,0,7.195,0.619,10.165,1.858c2.969,1.237,5.466,2.981,7.492,5.229c2.025,2.247,3.455,4.896,4.292,7.947
				c0.834,3.051,0.996,6.41,0.484,10.08c-0.506,3.624-1.604,6.973-3.294,10.045c-1.692,3.073-3.863,5.734-6.516,7.981
				c-2.654,2.247-5.639,3.99-8.953,5.229C97.56,409.682,93.999,410.3,90.192,410.3z M92.114,396.54c2.064,0,3.978-0.481,5.741-1.444
				c1.762-0.964,3.234-2.307,4.416-4.026c1.179-1.719,1.924-3.681,2.231-5.882c0.308-2.202,0.111-4.163-0.588-5.884
				c-0.702-1.72-1.798-3.061-3.292-4.024c-1.494-0.963-3.272-1.444-5.337-1.444c-2.063,0-3.979,0.481-5.74,1.444
				c-1.763,0.964-3.236,2.305-4.415,4.024c-1.181,1.721-1.924,3.682-2.232,5.884c-0.307,2.201-0.112,4.163,0.589,5.882
				c0.699,1.72,1.797,3.063,3.292,4.026C88.27,396.059,90.05,396.54,92.114,396.54z"/>
			<path fill="#FFFFFF" d="M133.842,409.612l4.958-35.503h-14.861l1.768-12.66h44.998l-1.768,12.66h-15.274l-4.958,35.503H133.842z"
				/>
			<path fill="#FFFFFF" d="M192.573,410.3c-3.762,0-7.138-0.618-10.13-1.856c-2.992-1.239-5.5-2.982-7.525-5.229
				c-2.026-2.247-3.456-4.908-4.287-7.981c-0.833-3.072-0.996-6.421-0.49-10.045c0.512-3.67,1.611-7.029,3.3-10.08
				c1.687-3.051,3.857-5.7,6.511-7.947c2.653-2.247,5.648-3.991,8.986-5.229c3.338-1.239,6.887-1.858,10.649-1.858
				c3.807,0,7.195,0.619,10.165,1.858c2.969,1.237,5.466,2.981,7.492,5.229c2.025,2.247,3.455,4.896,4.292,7.947
				c0.834,3.051,0.996,6.41,0.484,10.08c-0.506,3.624-1.604,6.973-3.294,10.045c-1.692,3.073-3.863,5.734-6.516,7.981
				c-2.654,2.247-5.639,3.99-8.953,5.229C199.941,409.682,196.38,410.3,192.573,410.3z M194.494,396.54
				c2.064,0,3.978-0.481,5.741-1.444c1.762-0.964,3.234-2.307,4.416-4.026c1.179-1.719,1.924-3.681,2.231-5.882
				c0.308-2.202,0.111-4.163-0.588-5.884c-0.702-1.72-1.798-3.061-3.292-4.024c-1.494-0.963-3.272-1.444-5.337-1.444
				c-2.063,0-3.979,0.481-5.74,1.444c-1.763,0.964-3.236,2.305-4.415,4.024c-1.181,1.721-1.924,3.682-2.232,5.884
				c-0.307,2.201-0.112,4.163,0.589,5.882c0.699,1.72,1.797,3.063,3.292,4.026C190.651,396.059,192.431,396.54,194.494,396.54z"/>
			<path fill="#FFFFFF" d="M243.627,410.3c-5.459,0-9.831-0.882-13.116-2.647c-3.286-1.767-5.958-4.14-8.019-7.122l9.946-9.633
				c1.883,2.937,4.009,4.875,6.378,5.813c2.368,0.941,4.654,1.411,6.856,1.411c1.329,0,2.434-0.183,3.31-0.55
				s1.382-1.032,1.517-1.995c0.103-0.733-0.111-1.343-0.64-1.824c-0.53-0.481-1.232-0.871-2.107-1.17
				c-0.876-0.298-1.758-0.55-2.646-0.756c-0.889-0.207-1.667-0.379-2.336-0.517c-5.372-1.283-9.237-3.164-11.597-5.642
				c-2.361-2.477-3.25-5.802-2.666-9.978c0.327-2.339,1.164-4.472,2.511-6.398c1.346-1.926,3.021-3.578,5.026-4.954
				c2.003-1.376,4.215-2.431,6.634-3.165c2.419-0.733,4.868-1.101,7.344-1.101c3.623,0,6.604,0.333,8.943,0.997
				c2.338,0.666,4.247,1.617,5.726,2.856c1.479,1.238,2.697,2.683,3.66,4.334l-9.832,8.325c-1.309-1.467-2.776-2.534-4.403-3.199
				c-1.628-0.664-3.313-0.997-5.056-0.997c-1.56,0-2.812,0.184-3.757,0.55c-0.946,0.368-1.479,0.987-1.602,1.858
				c-0.109,0.78,0.252,1.399,1.083,1.857c0.831,0.459,1.8,0.814,2.913,1.066c1.111,0.252,2.024,0.447,2.74,0.585
				c3.258,0.643,6.121,1.572,8.589,2.787c2.468,1.215,4.301,2.866,5.5,4.953c1.199,2.088,1.566,4.806,1.098,8.153
				c-0.492,3.532-1.789,6.491-3.887,8.876c-2.1,2.385-4.726,4.187-7.877,5.4C250.707,409.691,247.297,410.3,243.627,410.3z"/>
			<path fill="#FFFFFF" d="M264.088,409.612l26.06-48.163h11.697l12.471,48.163h-14.725l-1.615-7.155h-15.825l-3.613,7.155H264.088z
				 M289.184,388.558l-1.904,3.785h8.393l-0.848-3.785c-0.431-1.833-0.771-3.336-1.021-4.506s-0.449-2.373-0.596-3.612
				c-0.542,1.239-1.11,2.442-1.709,3.612C290.899,385.222,290.127,386.725,289.184,388.558z"/>
			<path fill="#FFFFFF" d="M318.443,409.612l6.726-48.163h14.862l-4.958,35.503h20.642l-1.768,12.66H318.443z"/>
			<path fill="#FFFFFF" d="M360.826,409.612l6.726-48.163h35.985l-1.682,12.041h-21.742l-0.855,6.123h19.197l-1.576,11.284h-19.196
				l-0.932,6.675h22.98l-1.682,12.04H360.826z"/>
			<path fill="#FFFFFF" d="M423.549,410.3c-5.459,0-9.83-0.882-13.115-2.647c-3.286-1.767-5.958-4.14-8.02-7.122l9.946-9.633
				c1.883,2.937,4.009,4.875,6.379,5.813c2.367,0.941,4.653,1.411,6.855,1.411c1.329,0,2.434-0.183,3.311-0.55
				c0.876-0.367,1.382-1.032,1.517-1.995c0.103-0.733-0.111-1.343-0.64-1.824c-0.529-0.481-1.232-0.871-2.107-1.17
				c-0.876-0.298-1.758-0.55-2.646-0.756c-0.889-0.207-1.667-0.379-2.336-0.517c-5.372-1.283-9.237-3.164-11.597-5.642
				c-2.361-2.477-3.25-5.802-2.667-9.978c0.327-2.339,1.164-4.472,2.511-6.398c1.347-1.926,3.021-3.578,5.026-4.954
				c2.003-1.376,4.215-2.431,6.634-3.165c2.419-0.733,4.868-1.101,7.345-1.101c3.623,0,6.604,0.333,8.942,0.997
				c2.338,0.666,4.247,1.617,5.726,2.856c1.479,1.238,2.697,2.683,3.66,4.334l-9.832,8.325c-1.309-1.467-2.776-2.534-4.403-3.199
				c-1.628-0.664-3.313-0.997-5.057-0.997c-1.559,0-2.812,0.184-3.757,0.55c-0.946,0.368-1.479,0.987-1.602,1.858
				c-0.108,0.78,0.252,1.399,1.083,1.857c0.83,0.459,1.8,0.814,2.912,1.066c1.111,0.252,2.024,0.447,2.739,0.585
				c3.259,0.643,6.122,1.572,8.59,2.787s4.301,2.866,5.501,4.953c1.198,2.088,1.564,4.806,1.098,8.153
				c-0.493,3.532-1.791,6.491-3.889,8.876c-2.1,2.385-4.725,4.187-7.876,5.4C430.629,409.691,427.219,410.3,423.549,410.3z"/>
		</g>
	</g>
</g>
</svg>
