<?xml version="1.0" encoding="utf-8"?>
<!-- Generator: Adobe Illustrator 16.0.0, SVG Export Plug-In . SVG Version: 6.00 Build 0)  -->
<!DOCTYPE svg PUBLIC "-//W3C//DTD SVG 1.1//EN" "http://www.w3.org/Graphics/SVG/1.1/DTD/svg11.dtd">
<svg version="1.1" id="Layer_1" xmlns="http://www.w3.org/2000/svg" xmlns:xlink="http://www.w3.org/1999/xlink" x="0px" y="0px"
	 width="128px" height="128px" viewBox="0 0 128 128" enable-background="new 0 0 128 128" xml:space="preserve">
<g>
	
		<linearGradient id="SVGID_1_" gradientUnits="userSpaceOnUse" x1="8.3599" y1="88.0547" x2="136.3594" y2="88.0547" gradientTransform="matrix(1 0 0 -1 -8.3599 152.0547)">
		<stop  offset="0" style="stop-color:#26A9E0"/>
		<stop  offset="1" style="stop-color:#2F80ED"/>
	</linearGradient>
	<rect fill="url(#SVGID_1_)" width="128" height="128"/>
	<g>
		<g>
			<path fill="#FFFFFF" d="M45.027,48.24"/>
			<path fill="#FFFFFF" d="M72.667,22.08c-9.742-6.279-23.775,1.602-31.344,17.601c-0.471,0.996-1.491,3.252-1.891,4.261
				c0,0,3.075-1.514,3.203-1.783c0.162-0.346,0.915-1.938,1.083-2.273C50.695,26.004,62.765,19.1,70.721,24.228
				c8.147,5.254,8.473,21.258,1.584,35.816c-6.887,14.563-18.377,22.17-26.526,16.916c-3.336-2.147-5.511-6.146-6.458-11.106
				c-0.829,0.105-1.632,0.018-2.216-0.097c1.043,6.287,3.795,11.462,8.153,14.271c9.741,6.279,23.776-1.601,31.346-17.602
				C84.172,46.424,82.41,28.359,72.667,22.08z"/>
			<g>
				<ellipse fill="#FFFFFF" cx="38.615" cy="58.187" rx="6.407" ry="6.335"/>
				<g>
					<path fill="#FFFFFF" d="M38.615,50.322c4.376,0,7.936,3.527,7.936,7.864c0,1.438-0.399,2.784-1.083,3.946h19.562
						c-6.409,10.706-14.183,12.873-18.833,10.39c-3.907-2.084-5.06-5.836-5.255-6.602c0.334,1.449,0.719,2.821,1.2,4.081
						c1.743,4.104,4.918,7.093,9.275,7.093c8.262,0,15.759-9.775,19.508-17.704c6.601-13.949,6.302-29.148-1.03-33.877
						c-6.367-4.103-15.852,0.796-22.438,10.93c11.481-15.662,22.431-12.555,24.422-1.934c0.235,1.253,0.354,2.609,0.371,4.039
						c-2.819-0.397-5.365-0.637-7.642-0.771c-8.967-0.529-8.967,0.926-22.242,8.471c-17.001,0.168-22.823,6.955-22.823,6.955v1.744
						c1.509-0.599,4.613-1.609,8.384-1.609l-2.795,5.481c0,0-3.671,0.461-5.589,0.821v2.492h12.221
						c-0.685-1.162-1.083-2.508-1.083-3.946C30.678,53.85,34.238,50.322,38.615,50.322z M59.343,40.529
						c2.157-0.44,6.9-0.249,12.826,0.634c-0.133,1.841-0.427,3.772-0.866,5.747c-5.605,0.078-10.752-0.104-15.716-0.021
						c0.364-0.609,0.566-1.374-0.115-1.826c-0.888-0.593-2.441,0.367-3.606,1.948c-1.752,0.09-3.49,0.229-5.229,0.447
						C46.637,47.459,55.132,41.389,59.343,40.529z"/>
				</g>
			</g>
			<g>
				<path fill="#FFFFFF" d="M103.553,50.907c0.084-0.271,0.156-0.547,0.213-0.827c-0.082-0.032-0.162-0.061-0.244-0.091
					c-0.017-0.005-0.033-0.011-0.049-0.017c-0.348-0.119-0.703-0.221-1.07-0.298c-0.016-0.003-0.035-0.007-0.053-0.011
					c-0.059-0.013-0.115-0.022-0.176-0.034c-0.021-0.003-0.044-0.007-0.064-0.011c-0.06-0.01-0.117-0.02-0.176-0.03
					c-0.02-0.001-0.039-0.003-0.058-0.007c-0.153-0.023-0.31-0.041-0.466-0.057c-0.023,0-0.045-0.002-0.068-0.005
					c-0.056-0.005-0.111-0.009-0.167-0.013c-0.026,0-0.052-0.002-0.079-0.005c-0.056-0.001-0.111-0.005-0.168-0.005
					c-0.023-0.002-0.047-0.004-0.07-0.005c-0.08-0.001-0.158-0.003-0.237-0.003c-0.671,0-1.325,0.078-1.952,0.222
					c0.664-0.229,1.359-0.395,2.08-0.486c3.912,0,3.382-2.494,2.544-4.458c-0.142-0.332-0.296-0.675-0.463-1.021
					c-0.001-0.003-0.002-0.007-0.004-0.01c-0.042-0.089-0.085-0.178-0.13-0.267c-0.004-0.008-0.008-0.015-0.012-0.023
					c-0.041-0.084-0.086-0.172-0.129-0.257c-0.006-0.013-0.013-0.022-0.018-0.032c-0.043-0.086-0.087-0.168-0.131-0.252
					c-0.008-0.013-0.014-0.027-0.021-0.041c-0.044-0.082-0.087-0.164-0.133-0.246c-0.009-0.016-0.018-0.028-0.025-0.045
					c-0.043-0.08-0.088-0.16-0.136-0.242c-0.008-0.016-0.019-0.031-0.026-0.048c-0.047-0.079-0.094-0.159-0.141-0.24
					c-0.008-0.015-0.018-0.03-0.027-0.047c-0.047-0.079-0.096-0.159-0.146-0.239c-0.008-0.014-0.017-0.027-0.024-0.041
					c-0.052-0.082-0.103-0.166-0.154-0.246c-0.004-0.008-0.01-0.014-0.014-0.021c-0.225-0.35-0.463-0.695-0.716-1.032
					c-0.015-0.019-0.026-0.036-0.042-0.056c-0.043-0.057-0.089-0.113-0.132-0.172c-0.028-0.035-0.053-0.068-0.082-0.103
					c-0.04-0.051-0.081-0.101-0.123-0.151c-0.032-0.039-0.063-0.078-0.097-0.117c-0.039-0.048-0.079-0.094-0.119-0.139
					c-0.036-0.044-0.072-0.083-0.107-0.125c-0.039-0.045-0.078-0.087-0.119-0.132c-0.037-0.042-0.076-0.085-0.115-0.125
					c-0.038-0.043-0.078-0.083-0.117-0.124c-0.04-0.044-0.081-0.085-0.122-0.127c-0.04-0.039-0.08-0.079-0.12-0.117
					c-0.042-0.043-0.085-0.084-0.128-0.125c-0.039-0.038-0.079-0.074-0.12-0.112c-0.044-0.042-0.088-0.083-0.133-0.122
					c-0.041-0.036-0.08-0.071-0.122-0.107c-0.046-0.04-0.092-0.08-0.14-0.118c-0.041-0.034-0.082-0.069-0.123-0.103
					c-0.047-0.039-0.096-0.076-0.143-0.113c-0.043-0.033-0.084-0.065-0.125-0.097c-0.05-0.038-0.1-0.073-0.148-0.11
					c-0.043-0.031-0.084-0.062-0.127-0.091c-0.051-0.036-0.104-0.07-0.154-0.104c-0.043-0.029-0.086-0.058-0.13-0.085
					c-0.052-0.035-0.106-0.067-0.16-0.101c-0.043-0.025-0.086-0.053-0.131-0.078c-0.056-0.033-0.11-0.063-0.166-0.094
					c-0.044-0.026-0.087-0.05-0.131-0.072c-0.058-0.032-0.117-0.062-0.175-0.091c-0.043-0.022-0.086-0.044-0.129-0.065
					c-0.063-0.028-0.125-0.058-0.188-0.085c-0.042-0.019-0.083-0.038-0.123-0.056c-0.07-0.029-0.145-0.057-0.214-0.086
					c-0.033-0.011-0.063-0.025-0.097-0.037c-0.002-0.001-0.006-0.002-0.008-0.004c-0.108-0.039-0.216-0.078-0.326-0.112
					l-0.604,1.362l-0.187,0.423c-0.232,0.524-0.186,1.12,0.106,1.595l-0.995,0.741c-0.23,0.174-0.314,0.479-0.203,0.745l0.034,0.082
					c0.229,0.547,0.009,1.179-0.512,1.464l-0.681,0.373l-1.36-2.356c-0.086-0.15-0.22-0.264-0.375-0.329
					c-0.093-0.038-0.194-0.059-0.297-0.059c-0.334,0-0.597,0.201-0.714,0.468l-0.911,0.555c-0.144,0.087-0.231,0.23-0.255,0.385
					c-0.006-0.003-0.014-0.006-0.022-0.01c-0.028-0.014-0.06-0.026-0.091-0.041c-0.02-0.008-0.037-0.015-0.057-0.023
					c-0.029-0.013-0.061-0.025-0.092-0.04c-0.019-0.008-0.039-0.017-0.058-0.024c-0.03-0.014-0.062-0.026-0.093-0.039
					c-0.021-0.01-0.041-0.018-0.063-0.026c-0.031-0.013-0.064-0.026-0.097-0.041c-0.052-0.019-0.103-0.038-0.153-0.061
					c-0.021-0.008-0.043-0.017-0.063-0.023c-0.034-0.015-0.07-0.028-0.105-0.042c-0.02-0.007-0.039-0.015-0.059-0.022
					c-0.037-0.014-0.074-0.027-0.111-0.041c-0.018-0.008-0.037-0.015-0.056-0.021c-0.039-0.015-0.078-0.029-0.117-0.045
					c-0.017-0.005-0.035-0.011-0.052-0.018c-0.041-0.016-0.082-0.029-0.124-0.045c-0.017-0.006-0.032-0.011-0.048-0.016
					c-0.043-0.016-0.086-0.031-0.131-0.047c-0.014-0.004-0.027-0.01-0.043-0.014c-0.047-0.018-0.092-0.032-0.14-0.047
					c-0.009-0.004-0.021-0.007-0.03-0.011c-0.051-0.016-0.103-0.032-0.156-0.05c-0.002-0.001-0.004-0.002-0.006-0.004
					c-1.855-0.592-4.119-0.998-5.916-0.463c0.22,6.734-1.295,14.285-4.672,21.429c-0.101,0.211-0.203,0.421-0.306,0.628
					c-0.006,0.098-0.011,0.194-0.011,0.292h0.033h1.49h12.834h2.133l-0.489-1.9c-0.421-1.64-0.413-3.339-0.007-4.927
					c0.011,0.004,0.023,0.008,0.035,0.012c0.02,0.007,0.039,0.014,0.058,0.02c0.056,0.021,0.112,0.038,0.17,0.058
					c0.019,0.006,0.036,0.013,0.054,0.018c0.07,0.022,0.143,0.044,0.211,0.065c0.002,0,0.006,0,0.008,0.001
					c0.031,0.01,0.063,0.019,0.096,0.027c-0.09,0.474-0.137,0.962-0.137,1.462c0,4.33,3.511,7.839,7.84,7.839
					c4.33,0,7.841-3.51,7.841-7.839C108.459,54.887,106.43,52.068,103.553,50.907z M91.432,44.441l-0.49-0.876
					c-0.201-0.358-0.488-0.66-0.834-0.88c-0.004-0.002-0.006-0.006-0.012-0.008l0.502-0.305l1.107,1.919L91.432,44.441z
					 M100.62,62.822c-2.563,0-4.644-2.078-4.644-4.643c0-0.41,0.053-0.808,0.154-1.188c0.307-0.031,0.607-0.076,0.903-0.139
					c-0.152,0.413-0.236,0.859-0.236,1.326c0,2.111,1.711,3.822,3.822,3.822c2.11,0,3.823-1.711,3.823-3.822
					c0-1.83-1.287-3.359-3.004-3.734c0.213-0.217,0.418-0.444,0.608-0.684c1.865,0.602,3.216,2.353,3.216,4.418
					C105.264,60.744,103.184,62.822,100.62,62.822z"/>
			</g>
		</g>
		<g enable-background="new    ">
			<path fill="#FFFFFF" d="M22.548,102.575c-0.94,0-1.784-0.154-2.533-0.464c-0.748-0.311-1.374-0.746-1.881-1.308
				c-0.506-0.562-0.864-1.228-1.072-1.995c-0.208-0.769-0.249-1.605-0.122-2.512c0.128-0.918,0.403-1.758,0.825-2.52
				c0.422-0.764,0.964-1.426,1.628-1.986c0.663-0.563,1.412-0.999,2.246-1.309c0.835-0.309,1.722-0.464,2.662-0.464
				c0.952,0,1.799,0.155,2.542,0.464c0.742,0.31,1.366,0.746,1.872,1.309c0.506,0.561,0.864,1.223,1.073,1.986
				c0.209,0.762,0.25,1.602,0.122,2.52c-0.126,0.906-0.402,1.743-0.824,2.512c-0.423,0.768-0.966,1.434-1.629,1.995
				c-0.662,0.562-1.409,0.997-2.237,1.308C24.39,102.421,23.5,102.575,22.548,102.575z M23.028,99.135
				c0.517,0,0.995-0.12,1.435-0.361c0.441-0.24,0.81-0.576,1.104-1.006c0.295-0.43,0.481-0.92,0.558-1.471s0.028-1.041-0.147-1.471
				s-0.449-0.766-0.823-1.006c-0.374-0.241-0.818-0.361-1.334-0.361c-0.516,0-0.994,0.12-1.435,0.361
				c-0.441,0.24-0.809,0.576-1.103,1.006c-0.296,0.43-0.481,0.92-0.558,1.471s-0.028,1.041,0.147,1.471
				c0.175,0.43,0.449,0.766,0.822,1.006C22.068,99.015,22.513,99.135,23.028,99.135z"/>
			<path fill="#FFFFFF" d="M33.46,102.403l1.24-8.876h-3.716l0.442-3.165h11.25l-0.442,3.165h-3.818l-1.24,8.876H33.46z"/>
			<path fill="#FFFFFF" d="M48.144,102.575c-0.94,0-1.784-0.154-2.533-0.464c-0.748-0.311-1.374-0.746-1.881-1.308
				c-0.506-0.562-0.864-1.228-1.072-1.995c-0.208-0.769-0.249-1.605-0.122-2.512c0.128-0.918,0.403-1.758,0.825-2.52
				c0.422-0.764,0.964-1.426,1.628-1.986c0.663-0.563,1.412-0.999,2.246-1.309c0.835-0.309,1.722-0.464,2.662-0.464
				c0.952,0,1.799,0.155,2.542,0.464c0.742,0.31,1.366,0.746,1.872,1.309c0.506,0.561,0.864,1.223,1.073,1.986
				c0.209,0.762,0.25,1.602,0.122,2.52c-0.126,0.906-0.402,1.743-0.824,2.512c-0.423,0.768-0.966,1.434-1.629,1.995
				c-0.662,0.562-1.409,0.997-2.237,1.308C49.986,102.421,49.096,102.575,48.144,102.575z M48.624,99.135
				c0.517,0,0.995-0.12,1.435-0.361c0.441-0.24,0.81-0.576,1.104-1.006c0.295-0.43,0.481-0.92,0.558-1.471s0.028-1.041-0.147-1.471
				s-0.449-0.766-0.823-1.006c-0.374-0.241-0.818-0.361-1.334-0.361c-0.516,0-0.994,0.12-1.435,0.361
				c-0.441,0.24-0.809,0.576-1.103,1.006c-0.296,0.43-0.481,0.92-0.558,1.471s-0.028,1.041,0.147,1.471
				c0.175,0.43,0.449,0.766,0.822,1.006C47.664,99.015,48.108,99.135,48.624,99.135z"/>
			<path fill="#FFFFFF" d="M60.908,102.575c-1.365,0-2.459-0.221-3.28-0.662c-0.821-0.441-1.489-1.034-2.004-1.78l2.487-2.408
				c0.471,0.734,1.001,1.219,1.594,1.453c0.592,0.235,1.164,0.354,1.714,0.354c0.332,0,0.608-0.047,0.828-0.139
				c0.219-0.092,0.345-0.258,0.379-0.498c0.025-0.184-0.028-0.336-0.16-0.456c-0.132-0.12-0.308-0.218-0.527-0.292
				s-0.438-0.139-0.661-0.189c-0.222-0.052-0.417-0.095-0.584-0.129c-1.343-0.321-2.309-0.792-2.899-1.41
				c-0.59-0.62-0.813-1.451-0.667-2.495c0.082-0.585,0.291-1.118,0.627-1.6c0.337-0.481,0.756-0.894,1.257-1.238
				c0.501-0.345,1.053-0.607,1.658-0.792c0.604-0.183,1.217-0.274,1.836-0.274c0.906,0,1.652,0.083,2.236,0.249
				s1.062,0.404,1.432,0.715c0.369,0.309,0.674,0.67,0.915,1.083l-2.459,2.081c-0.326-0.367-0.693-0.633-1.1-0.799
				c-0.407-0.167-0.828-0.25-1.264-0.25c-0.391,0-0.704,0.046-0.94,0.137c-0.237,0.092-0.37,0.248-0.4,0.465
				c-0.027,0.195,0.063,0.35,0.27,0.465c0.208,0.114,0.451,0.203,0.729,0.266c0.278,0.064,0.506,0.113,0.685,0.146
				c0.814,0.161,1.531,0.393,2.147,0.697c0.617,0.304,1.075,0.717,1.375,1.238s0.392,1.201,0.274,2.038
				c-0.123,0.884-0.447,1.623-0.972,2.22c-0.525,0.596-1.181,1.047-1.968,1.35C62.677,102.423,61.825,102.575,60.908,102.575z"/>
			<path fill="#FFFFFF" d="M66.021,102.403l6.515-12.041h2.925l3.117,12.041h-3.681l-0.404-1.789h-3.956l-0.903,1.789H66.021z
				 M72.295,97.14l-0.476,0.946h2.099l-0.212-0.946c-0.107-0.458-0.193-0.834-0.256-1.126c-0.063-0.293-0.112-0.594-0.149-0.904
				c-0.135,0.311-0.277,0.611-0.427,0.904C72.724,96.306,72.532,96.682,72.295,97.14z"/>
			<path fill="#FFFFFF" d="M79.61,102.403l1.682-12.041h3.716l-1.239,8.876h5.16l-0.442,3.165H79.61z"/>
			<path fill="#FFFFFF" d="M90.206,102.403l1.682-12.041h8.996l-0.42,3.011h-5.436l-0.214,1.531h4.8l-0.394,2.82h-4.8l-0.233,1.668
				h5.745l-0.421,3.011H90.206z"/>
			<path fill="#FFFFFF" d="M105.888,102.575c-1.365,0-2.459-0.221-3.279-0.662c-0.821-0.441-1.489-1.034-2.005-1.78l2.487-2.408
				c0.471,0.734,1.001,1.219,1.594,1.453c0.592,0.235,1.163,0.354,1.714,0.354c0.332,0,0.608-0.047,0.828-0.139
				c0.219-0.092,0.346-0.258,0.379-0.498c0.025-0.184-0.028-0.336-0.16-0.456s-0.308-0.218-0.527-0.292
				c-0.219-0.074-0.438-0.139-0.661-0.189c-0.222-0.052-0.417-0.095-0.584-0.129c-1.343-0.321-2.31-0.792-2.899-1.41
				c-0.59-0.62-0.813-1.451-0.667-2.495c0.082-0.585,0.291-1.118,0.628-1.6s0.756-0.894,1.257-1.238s1.054-0.607,1.658-0.792
				c0.604-0.183,1.217-0.274,1.836-0.274c0.906,0,1.652,0.083,2.236,0.249s1.062,0.404,1.432,0.715
				c0.369,0.309,0.674,0.67,0.915,1.083l-2.459,2.081c-0.326-0.367-0.693-0.633-1.101-0.799c-0.407-0.167-0.828-0.25-1.264-0.25
				c-0.391,0-0.703,0.046-0.939,0.137c-0.237,0.092-0.37,0.248-0.4,0.465c-0.027,0.195,0.063,0.35,0.271,0.465
				c0.207,0.114,0.451,0.203,0.729,0.266c0.278,0.064,0.506,0.113,0.685,0.146c0.814,0.161,1.53,0.393,2.147,0.697
				c0.617,0.304,1.075,0.717,1.375,1.238s0.392,1.201,0.274,2.038c-0.123,0.884-0.447,1.623-0.972,2.22
				c-0.525,0.596-1.181,1.047-1.969,1.35C107.657,102.423,106.805,102.575,105.888,102.575z"/>
		</g>
	</g>
</g>
</svg>
