<?xml version="1.0" encoding="utf-8"?>
<!-- Generator: Adobe Illustrator 16.0.0, SVG Export Plug-In . SVG Version: 6.00 Build 0)  -->
<!DOCTYPE svg PUBLIC "-//W3C//DTD SVG 1.1//EN" "http://www.w3.org/Graphics/SVG/1.1/DTD/svg11.dtd">
<svg version="1.1" id="Layer_1" xmlns="http://www.w3.org/2000/svg" xmlns:xlink="http://www.w3.org/1999/xlink" x="0px" y="0px"
	 width="1024px" height="500px" viewBox="0 0 1024 500" enable-background="new 0 0 1024 500" xml:space="preserve">
<linearGradient id="SVGID_1_" gradientUnits="userSpaceOnUse" x1="8.3601" y1="274.0547" x2="1032.3596" y2="274.0547" gradientTransform="matrix(1 0 0 -1 -8.3599 524.0547)">
	<stop  offset="0" style="stop-color:#26A9E0"/>
	<stop  offset="1" style="stop-color:#2F80ED"/>
</linearGradient>
<rect x="0" fill="url(#SVGID_1_)" width="1024" height="500"/>
<g>
	<g>
		<path fill="#FFFFFF" d="M186.839,241.457"/>
		<path fill="#FFFFFF" d="M270.808,161.982c-29.596-19.075-72.229,4.863-95.22,53.47c-1.43,3.026-4.531,9.877-5.743,12.942
			c0,0,9.341-4.6,9.73-5.418c0.491-1.049,2.778-5.886,3.292-6.906c21.192-42.171,57.859-63.145,82.03-47.563
			c24.751,15.958,25.74,64.572,4.814,108.806c-20.921,44.237-55.831,67.346-80.585,51.391
			c-10.132-6.531-16.741-18.676-19.619-33.748c-2.52,0.327-4.958,0.056-6.732-0.288c3.171,19.099,11.53,34.815,24.771,43.351
			c29.593,19.077,72.229-4.865,95.221-53.476C305.756,235.936,300.404,181.062,270.808,161.982z"/>
		<g>
			<path fill="#FFFFFF" d="M167.358,252.427c-10.75,0-19.464,8.614-19.464,19.245c0,10.625,8.714,19.242,19.464,19.242
				c10.749,0,19.463-8.617,19.463-19.242C186.821,261.041,178.107,252.427,167.358,252.427z"/>
			<g>
				<path fill="#FFFFFF" d="M167.358,247.781c13.293,0,24.108,10.716,24.108,23.891c0,4.368-1.211,8.457-3.288,11.986h59.425
					c-19.472,32.523-43.086,39.105-57.213,31.564c-11.868-6.334-15.369-17.729-15.965-20.056c1.017,4.401,2.185,8.571,3.646,12.394
					c5.296,12.478,14.94,21.549,28.177,21.549c25.101,0,47.875-29.698,59.265-53.783c20.047-42.376,19.146-88.551-3.131-102.913
					c-19.343-12.466-48.154,2.416-68.168,33.202c34.881-47.578,68.145-38.138,74.191-5.871c0.715,3.807,1.08,7.928,1.129,12.267
					c-8.566-1.204-16.298-1.934-23.216-2.341c-27.239-1.609-27.239,2.815-67.569,25.733c-51.648,0.509-69.336,21.125-69.336,21.125
					v5.302c4.585-1.819,14.017-4.886,25.471-4.886l-8.492,16.647c0,0-11.149,1.404-16.979,2.498v7.568h37.126
					c-2.078-3.529-3.289-7.618-3.289-11.986C143.249,258.497,154.063,247.781,167.358,247.781z M230.328,218.03
					c6.554-1.337,20.965-0.756,38.964,1.927c-0.403,5.591-1.297,11.459-2.633,17.454c-17.029,0.243-32.662-0.309-47.742-0.061
					c1.104-1.849,1.72-4.172-0.349-5.549c-2.698-1.801-7.417,1.116-10.957,5.921c-5.319,0.274-10.603,0.695-15.885,1.356
					C191.728,239.079,217.537,220.639,230.328,218.03z"/>
			</g>
		</g>
		<g>
			<path fill="#FFFFFF" d="M364.635,249.555c0.253-0.822,0.471-1.659,0.645-2.512c-0.245-0.096-0.494-0.187-0.742-0.274
				c-0.048-0.016-0.097-0.034-0.146-0.05c-1.055-0.368-2.138-0.672-3.25-0.906c-0.053-0.011-0.109-0.019-0.162-0.032
				c-0.179-0.037-0.353-0.069-0.533-0.104c-0.066-0.011-0.133-0.021-0.2-0.034c-0.179-0.029-0.354-0.059-0.533-0.088
				c-0.057-0.006-0.113-0.017-0.172-0.024c-0.47-0.069-0.94-0.125-1.418-0.171c-0.068-0.002-0.136-0.01-0.204-0.016
				c-0.171-0.014-0.341-0.026-0.51-0.037c-0.08-0.003-0.159-0.011-0.24-0.016c-0.169-0.006-0.335-0.017-0.508-0.02
				c-0.071-0.002-0.144-0.008-0.218-0.01c-0.241-0.006-0.479-0.011-0.721-0.011c-2.039,0-4.023,0.236-5.931,0.674
				c2.018-0.698,4.13-1.199,6.316-1.476c11.884,0,10.276-7.576,7.73-13.545c-0.433-1.01-0.9-2.049-1.406-3.101
				c-0.004-0.008-0.008-0.019-0.012-0.029c-0.13-0.269-0.262-0.538-0.397-0.81c-0.009-0.024-0.021-0.046-0.033-0.069
				c-0.128-0.259-0.261-0.522-0.395-0.783c-0.018-0.034-0.034-0.066-0.052-0.099c-0.133-0.259-0.265-0.509-0.396-0.765
				c-0.022-0.04-0.044-0.082-0.064-0.122c-0.133-0.251-0.268-0.498-0.403-0.749c-0.027-0.045-0.051-0.088-0.076-0.136
				c-0.136-0.245-0.271-0.49-0.413-0.735c-0.025-0.048-0.055-0.096-0.081-0.144c-0.14-0.242-0.281-0.487-0.426-0.732
				c-0.025-0.045-0.054-0.094-0.083-0.142c-0.144-0.242-0.292-0.484-0.442-0.729c-0.022-0.04-0.05-0.082-0.076-0.125
				c-0.154-0.248-0.311-0.498-0.47-0.746c-0.012-0.022-0.024-0.04-0.039-0.063c-0.683-1.063-1.408-2.115-2.176-3.136
				c-0.042-0.056-0.083-0.114-0.126-0.17c-0.134-0.174-0.27-0.347-0.404-0.52c-0.082-0.106-0.16-0.211-0.245-0.314
				c-0.123-0.154-0.248-0.304-0.373-0.458c-0.1-0.12-0.194-0.24-0.296-0.359c-0.118-0.145-0.239-0.282-0.36-0.421
				c-0.109-0.131-0.217-0.254-0.326-0.381c-0.117-0.134-0.239-0.264-0.358-0.397c-0.115-0.128-0.232-0.256-0.352-0.381
				c-0.117-0.13-0.236-0.253-0.355-0.378c-0.122-0.131-0.246-0.256-0.37-0.384c-0.121-0.12-0.243-0.239-0.362-0.359
				c-0.128-0.125-0.258-0.253-0.391-0.378c-0.118-0.115-0.239-0.227-0.361-0.342c-0.136-0.125-0.27-0.247-0.405-0.37
				c-0.124-0.109-0.245-0.216-0.371-0.325c-0.14-0.122-0.278-0.242-0.422-0.361c-0.124-0.102-0.248-0.208-0.374-0.31
				c-0.144-0.117-0.291-0.231-0.436-0.344c-0.127-0.099-0.253-0.199-0.382-0.296c-0.15-0.114-0.301-0.224-0.451-0.332
				c-0.129-0.094-0.258-0.187-0.387-0.277c-0.155-0.109-0.313-0.213-0.469-0.317c-0.132-0.088-0.263-0.176-0.393-0.258
				c-0.16-0.106-0.324-0.205-0.486-0.304c-0.132-0.08-0.263-0.163-0.396-0.24c-0.168-0.099-0.34-0.194-0.507-0.287
				c-0.133-0.075-0.264-0.149-0.396-0.219c-0.176-0.096-0.355-0.184-0.534-0.274c-0.129-0.066-0.258-0.133-0.389-0.194
				c-0.19-0.091-0.382-0.176-0.574-0.261c-0.125-0.056-0.249-0.114-0.371-0.168c-0.216-0.091-0.436-0.176-0.653-0.261
				c-0.097-0.038-0.194-0.08-0.293-0.115c-0.006-0.005-0.017-0.008-0.022-0.011c-0.328-0.119-0.655-0.236-0.99-0.341l-1.834,4.135
				l-0.569,1.286c-0.704,1.593-0.559,3.404,0.328,4.848l-3.021,2.251c-0.703,0.524-0.956,1.454-0.618,2.262l0.104,0.25
				c0.697,1.659,0.027,3.58-1.554,4.445l-2.068,1.133l-4.132-7.155c-0.262-0.458-0.666-0.804-1.139-0.999
				c-0.282-0.119-0.59-0.181-0.904-0.181c-1.014,0-1.813,0.61-2.167,1.423l-2.769,1.686c-0.437,0.264-0.703,0.7-0.774,1.167
				c-0.02-0.008-0.044-0.019-0.067-0.029c-0.092-0.04-0.184-0.08-0.275-0.123c-0.059-0.023-0.113-0.048-0.171-0.071
				c-0.09-0.043-0.185-0.083-0.278-0.123c-0.059-0.023-0.118-0.051-0.177-0.074c-0.095-0.04-0.188-0.08-0.284-0.12
				c-0.061-0.026-0.125-0.054-0.189-0.077c-0.097-0.04-0.195-0.08-0.292-0.123c-0.156-0.061-0.313-0.122-0.47-0.186
				c-0.063-0.024-0.125-0.051-0.187-0.075c-0.106-0.042-0.213-0.082-0.32-0.122c-0.06-0.024-0.118-0.046-0.178-0.069
				c-0.111-0.046-0.225-0.085-0.335-0.128c-0.057-0.021-0.113-0.043-0.171-0.062c-0.118-0.045-0.237-0.091-0.354-0.133
				c-0.053-0.019-0.106-0.037-0.16-0.056c-0.125-0.049-0.248-0.091-0.376-0.137c-0.049-0.016-0.097-0.034-0.144-0.051
				c-0.132-0.045-0.265-0.093-0.401-0.138c-0.04-0.014-0.083-0.029-0.125-0.043c-0.143-0.051-0.282-0.096-0.425-0.144
				c-0.03-0.011-0.063-0.021-0.095-0.029c-0.154-0.051-0.313-0.102-0.472-0.154c-0.006-0.003-0.016-0.006-0.021-0.009
				c-5.634-1.8-12.511-3.033-17.97-1.409c0.668,20.457-3.931,43.396-14.193,65.095c-0.304,0.642-0.613,1.278-0.925,1.913
				c-0.02,0.293-0.033,0.588-0.033,0.887h0.1h4.527h38.992h6.477l-1.482-5.775c-1.277-4.979-1.254-10.141-0.021-14.969
				c0.034,0.014,0.073,0.023,0.107,0.037c0.058,0.021,0.117,0.039,0.176,0.062c0.171,0.062,0.344,0.116,0.517,0.176
				c0.054,0.017,0.109,0.035,0.164,0.054c0.216,0.066,0.43,0.135,0.645,0.197c0.005,0,0.015,0.003,0.02,0.005
				c0.098,0.029,0.194,0.058,0.293,0.083c-0.271,1.438-0.416,2.922-0.416,4.438c0,13.155,10.664,23.818,23.818,23.818
				s23.818-10.663,23.818-23.818C379.54,261.646,373.375,253.084,364.635,249.555z M327.808,229.916l-1.489-2.664
				c-0.607-1.089-1.481-2.006-2.53-2.672c-0.012-0.008-0.021-0.016-0.035-0.023l1.521-0.927l3.365,5.831L327.808,229.916z
				 M355.723,285.752c-7.79,0-14.104-6.313-14.104-14.104c0-1.244,0.161-2.453,0.467-3.604c0.93-0.096,1.845-0.233,2.741-0.426
				c-0.462,1.258-0.716,2.612-0.716,4.03c0,6.414,5.197,11.612,11.611,11.612c6.413,0,11.613-5.198,11.613-11.612
				c0-5.561-3.909-10.205-9.124-11.342c0.647-0.662,1.268-1.354,1.847-2.078c5.666,1.826,9.769,7.145,9.769,13.42
				C369.827,279.438,363.513,285.752,355.723,285.752z"/>
		</g>
	</g>
	<g enable-background="new    ">
		<path fill="#FFFFFF" d="M421.952,290.68c-4.914,0-9.325-0.809-13.233-2.427s-7.187-3.895-9.832-6.831
			c-2.646-2.936-4.513-6.412-5.6-10.427c-1.089-4.014-1.301-8.388-0.639-13.122c0.669-4.794,2.104-9.183,4.31-13.168
			c2.204-3.984,5.039-7.445,8.506-10.381c3.466-2.936,7.379-5.213,11.74-6.831c4.359-1.618,8.997-2.427,13.911-2.427
			c4.973,0,9.398,0.809,13.278,2.427c3.877,1.618,7.14,3.896,9.786,6.831c2.646,2.937,4.514,6.397,5.606,10.381
			c1.091,3.986,1.303,8.375,0.634,13.168c-0.662,4.734-2.097,9.108-4.305,13.122c-2.21,4.015-5.046,7.491-8.513,10.427
			c-3.466,2.937-7.364,5.213-11.694,6.831C431.577,289.871,426.925,290.68,421.952,290.68z M424.463,272.703
			c2.696,0,5.195-0.629,7.499-1.887c2.302-1.259,4.225-3.012,5.767-5.259s2.515-4.809,2.916-7.685
			c0.402-2.877,0.145-5.438-0.77-7.686s-2.349-4-4.299-5.258c-1.952-1.258-4.275-1.888-6.972-1.888c-2.697,0-5.197,0.629-7.5,1.888
			s-4.226,3.011-5.768,5.258s-2.514,4.809-2.915,7.686c-0.402,2.876-0.146,5.438,0.77,7.685c0.913,2.247,2.348,4,4.299,5.259
			C419.442,272.074,421.766,272.703,424.463,272.703z"/>
		<path fill="#FFFFFF" d="M478.974,289.781l6.477-46.38h-19.415l2.31-16.539h58.783l-2.31,16.539h-19.954l-6.477,46.38H478.974z"/>
		<path fill="#FFFFFF" d="M555.698,290.68c-4.914,0-9.325-0.809-13.233-2.427s-7.187-3.895-9.832-6.831
			c-2.646-2.936-4.513-6.412-5.6-10.427c-1.089-4.014-1.3-8.388-0.64-13.122c0.67-4.794,2.104-9.183,4.311-13.168
			c2.204-3.984,5.039-7.445,8.506-10.381c3.465-2.936,7.379-5.213,11.74-6.831c4.359-1.618,8.997-2.427,13.911-2.427
			c4.973,0,9.398,0.809,13.278,2.427c3.877,1.618,7.141,3.896,9.786,6.831c2.646,2.937,4.514,6.397,5.606,10.381
			c1.091,3.986,1.303,8.375,0.633,13.168c-0.66,4.734-2.096,9.108-4.304,13.122c-2.21,4.015-5.046,7.491-8.513,10.427
			c-3.466,2.937-7.364,5.213-11.694,6.831C565.323,289.871,560.67,290.68,555.698,290.68z M558.208,272.703
			c2.696,0,5.195-0.629,7.499-1.887c2.302-1.259,4.225-3.012,5.768-5.259c1.541-2.247,2.514-4.809,2.916-7.685
			c0.401-2.877,0.144-5.438-0.771-7.686s-2.349-4-4.299-5.258c-1.952-1.258-4.275-1.888-6.972-1.888c-2.697,0-5.197,0.629-7.5,1.888
			s-4.226,3.011-5.768,5.258s-2.514,4.809-2.916,7.686c-0.401,2.876-0.145,5.438,0.77,7.685s2.349,4,4.3,5.259
			C553.187,272.074,555.511,272.703,558.208,272.703z"/>
		<path fill="#FFFFFF" d="M622.39,290.68c-7.132,0-12.843-1.153-17.134-3.461c-4.293-2.306-7.784-5.406-10.476-9.303l12.993-12.583
			c2.459,3.835,5.236,6.367,8.332,7.595c3.094,1.229,6.079,1.843,8.955,1.843c1.737,0,3.18-0.239,4.325-0.72
			c1.146-0.479,1.807-1.348,1.982-2.605c0.134-0.959-0.146-1.754-0.837-2.383c-0.691-0.629-1.608-1.137-2.752-1.527
			c-1.145-0.389-2.297-0.719-3.458-0.989c-1.161-0.269-2.178-0.494-3.051-0.674c-7.018-1.677-12.066-4.135-15.149-7.37
			c-3.085-3.236-4.246-7.58-3.484-13.033c0.427-3.056,1.52-5.842,3.279-8.359c1.759-2.517,3.948-4.674,6.567-6.472
			c2.617-1.797,5.506-3.175,8.666-4.134c3.159-0.958,6.358-1.438,9.595-1.438c4.732,0,8.626,0.435,11.682,1.303
			c3.054,0.869,5.547,2.112,7.479,3.73c1.932,1.618,3.525,3.505,4.782,5.663l-12.844,10.875c-1.71-1.917-3.628-3.311-5.753-4.179
			c-2.126-0.868-4.328-1.304-6.604-1.304c-2.038,0-3.674,0.241-4.909,0.719c-1.236,0.481-1.933,1.29-2.092,2.427
			c-0.143,1.02,0.329,1.829,1.414,2.427c1.084,0.6,2.353,1.064,3.806,1.393c1.451,0.33,2.644,0.584,3.578,0.764
			c4.257,0.839,7.996,2.053,11.222,3.64c3.223,1.589,5.618,3.745,7.186,6.472c1.565,2.727,2.044,6.277,1.434,10.65
			c-0.645,4.615-2.339,8.48-5.079,11.596c-2.743,3.116-6.172,5.469-10.288,7.056C631.638,289.885,627.183,290.68,622.39,290.68z"/>
		<path fill="#FFFFFF" d="M649.12,289.781l34.043-62.918h15.28l16.291,62.918H695.5l-2.111-9.348h-20.672l-4.721,9.348H649.12z
			 M681.904,262.277l-2.488,4.943h10.966l-1.107-4.943c-0.564-2.396-1.009-4.359-1.335-5.889c-0.326-1.527-0.587-3.1-0.779-4.718
			c-0.706,1.618-1.45,3.19-2.231,4.718C684.144,257.918,683.136,259.881,681.904,262.277z"/>
		<path fill="#FFFFFF" d="M720.126,289.781l8.786-62.918h19.415l-6.477,46.379h26.965l-2.31,16.539H720.126z"/>
		<path fill="#FFFFFF" d="M775.493,289.781l8.786-62.918h47.009l-2.197,15.729h-28.403l-1.117,8h25.078l-2.058,14.741h-25.078
			l-1.218,8.718h30.021l-2.196,15.73H775.493z"/>
		<path fill="#FFFFFF" d="M857.431,290.68c-7.132,0-12.843-1.153-17.134-3.461c-4.293-2.306-7.784-5.406-10.476-9.303l12.993-12.583
			c2.459,3.835,5.236,6.367,8.332,7.595c3.094,1.229,6.079,1.843,8.955,1.843c1.737,0,3.18-0.239,4.325-0.72
			c1.146-0.479,1.807-1.348,1.982-2.605c0.134-0.959-0.146-1.754-0.837-2.383c-0.691-0.629-1.608-1.137-2.752-1.527
			c-1.145-0.389-2.297-0.719-3.458-0.989c-1.161-0.269-2.178-0.494-3.051-0.674c-7.018-1.677-12.066-4.135-15.149-7.37
			c-3.085-3.236-4.246-7.58-3.484-13.033c0.427-3.056,1.52-5.842,3.279-8.359c1.759-2.517,3.948-4.674,6.567-6.472
			c2.617-1.797,5.506-3.175,8.666-4.134c3.159-0.958,6.358-1.438,9.595-1.438c4.732,0,8.626,0.435,11.682,1.303
			c3.054,0.869,5.547,2.112,7.479,3.73c1.932,1.618,3.525,3.505,4.782,5.663l-12.844,10.875c-1.71-1.917-3.628-3.311-5.753-4.179
			c-2.126-0.868-4.328-1.304-6.604-1.304c-2.038,0-3.674,0.241-4.909,0.719c-1.236,0.481-1.933,1.29-2.092,2.427
			c-0.143,1.02,0.329,1.829,1.414,2.427c1.084,0.6,2.353,1.064,3.806,1.393c1.451,0.33,2.644,0.584,3.578,0.764
			c4.257,0.839,7.996,2.053,11.222,3.64c3.223,1.589,5.618,3.745,7.186,6.472c1.565,2.727,2.044,6.277,1.434,10.65
			c-0.645,4.615-2.339,8.48-5.079,11.596c-2.743,3.116-6.172,5.469-10.288,7.056C866.679,289.885,862.224,290.68,857.431,290.68z"/>
	</g>
</g>
</svg>
