<?xml version="1.0" encoding="utf-8"?>
<!-- Generator: Adobe Illustrator 16.0.0, SVG Export Plug-In . SVG Version: 6.00 Build 0)  -->
<!DOCTYPE svg PUBLIC "-//W3C//DTD SVG 1.1//EN" "http://www.w3.org/Graphics/SVG/1.1/DTD/svg11.dtd">
<svg version="1.1" id="Layer_1" xmlns="http://www.w3.org/2000/svg" xmlns:xlink="http://www.w3.org/1999/xlink" x="0px" y="0px"
	 width="512px" height="512px" viewBox="0 0 512 512" enable-background="new 0 0 512 512" xml:space="preserve">
<g>
	<rect fill="#FFFFFF" width="512" height="512"/>
	<g>
		<g>
			<linearGradient id="SVGID_1_" gradientUnits="userSpaceOnUse" x1="180.1099" y1="192.9629" x2="180.1099" y2="192.9629">
				<stop  offset="0" style="stop-color:#26A9E0"/>
				<stop  offset="1" style="stop-color:#2F80ED"/>
			</linearGradient>
			<path fill="url(#SVGID_1_)" d="M180.11,192.963"/>
			<linearGradient id="SVGID_2_" gradientUnits="userSpaceOnUse" x1="489.6289" y1="204.2129" x2="81.4294" y2="204.2129">
				<stop  offset="0" style="stop-color:#26A9E0"/>
				<stop  offset="1" style="stop-color:#2F80ED"/>
			</linearGradient>
			<path fill="url(#SVGID_2_)" d="M290.671,88.32c-38.97-25.119-95.104,6.405-125.375,70.402
				c-1.887,3.984-5.967,13.009-7.564,17.043c0,0,12.299-6.056,12.812-7.135c0.652-1.381,3.661-7.75,4.335-9.091
				c27.909-55.528,76.186-83.146,108.012-62.632c32.588,21.016,33.89,85.027,6.338,143.266
				c-27.546,58.25-73.512,88.677-106.106,67.664c-13.342-8.597-22.043-24.585-25.829-44.433c-3.317,0.427-6.531,0.073-8.866-0.381
				c4.174,25.149,15.18,45.848,32.613,57.082c38.966,25.116,95.104-6.405,125.378-70.408
				C336.689,185.695,329.64,113.439,290.671,88.32z"/>
			<g>
				<linearGradient id="SVGID_3_" gradientUnits="userSpaceOnUse" x1="489.6392" y1="232.7471" x2="81.4249" y2="232.7471">
					<stop  offset="0" style="stop-color:#26A9E0"/>
					<stop  offset="1" style="stop-color:#2F80ED"/>
				</linearGradient>
				<path fill="url(#SVGID_3_)" d="M154.457,207.408c-14.152,0-25.628,11.345-25.628,25.339c0,13.991,11.476,25.338,25.628,25.338
					c14.153,0,25.628-11.347,25.628-25.338C180.085,218.753,168.61,207.408,154.457,207.408z"/>
				<g>
					<linearGradient id="SVGID_4_" gradientUnits="userSpaceOnUse" x1="489.624" y1="202.3154" x2="81.4289" y2="202.3155">
						<stop  offset="0" style="stop-color:#26A9E0"/>
						<stop  offset="1" style="stop-color:#2F80ED"/>
					</linearGradient>
					<path fill="url(#SVGID_4_)" d="M154.457,201.29c17.506,0,31.744,14.109,31.744,31.457c0,5.753-1.591,11.137-4.329,15.783
						h78.244c-25.634,42.82-56.731,51.488-75.329,41.558c-15.628-8.338-20.238-23.344-21.021-26.405
						c1.338,5.799,2.875,11.287,4.799,16.323c6.973,16.424,19.674,28.372,37.101,28.372c33.049,0,63.037-39.106,78.034-70.817
						c26.396-55.795,25.207-116.594-4.122-135.506c-25.47-16.411-63.405,3.184-89.759,43.717
						c45.927-62.646,89.726-50.217,97.689-7.731c0.939,5.012,1.424,10.438,1.488,16.155c-11.281-1.589-21.46-2.549-30.57-3.086
						c-35.866-2.115-35.866,3.705-88.97,33.882c-68.003,0.671-91.292,27.819-91.292,27.819v6.977
						c6.037-2.394,18.454-6.434,33.537-6.434l-11.18,21.924c0,0-14.683,1.845-22.357,3.287v9.966h48.881
						c-2.735-4.646-4.33-10.03-4.33-15.783C122.713,215.399,136.951,201.29,154.457,201.29z M237.372,162.119
						c8.628-1.763,27.604-0.997,51.305,2.533c-0.533,7.363-1.71,15.089-3.47,22.988c-22.42,0.313-43.006-0.412-62.862-0.083
						c1.454-2.436,2.265-5.493-0.458-7.305c-3.552-2.372-9.765,1.47-14.424,7.793c-7.009,0.362-13.963,0.917-20.915,1.789
						C186.549,189.835,220.53,165.555,237.372,162.119z"/>
				</g>
			</g>
			<g>
				<linearGradient id="SVGID_5_" gradientUnits="userSpaceOnUse" x1="489.6279" y1="205.5615" x2="81.4271" y2="205.5616">
					<stop  offset="0" style="stop-color:#26A9E0"/>
					<stop  offset="1" style="stop-color:#2F80ED"/>
				</linearGradient>
				<path fill="url(#SVGID_5_)" d="M414.213,203.628c0.333-1.082,0.622-2.186,0.848-3.308c-0.323-0.128-0.649-0.244-0.976-0.363
					c-0.064-0.021-0.128-0.042-0.192-0.066c-1.39-0.479-2.814-0.882-4.28-1.192c-0.07-0.013-0.143-0.027-0.213-0.043
					c-0.235-0.049-0.463-0.088-0.701-0.137c-0.088-0.013-0.177-0.024-0.265-0.043c-0.232-0.04-0.467-0.079-0.702-0.119
					c-0.073-0.003-0.149-0.015-0.226-0.03c-0.616-0.092-1.238-0.161-1.866-0.223c-0.091-0.003-0.18-0.012-0.271-0.021
					c-0.223-0.018-0.448-0.033-0.668-0.049c-0.106-0.003-0.213-0.012-0.32-0.021c-0.222-0.003-0.442-0.021-0.667-0.021
					c-0.094-0.007-0.189-0.013-0.287-0.019c-0.317-0.003-0.628-0.013-0.948-0.013c-2.686,0-5.299,0.312-7.808,0.888
					c2.655-0.918,5.436-1.579,8.317-1.945c15.646,0,13.53-9.976,10.177-17.832c-0.567-1.329-1.186-2.698-1.854-4.082
					c-0.003-0.01-0.009-0.028-0.015-0.04c-0.171-0.354-0.342-0.71-0.521-1.067c-0.012-0.03-0.03-0.058-0.043-0.091
					c-0.17-0.339-0.344-0.687-0.521-1.028c-0.021-0.049-0.046-0.088-0.067-0.131c-0.173-0.341-0.347-0.668-0.521-1.006
					c-0.031-0.052-0.058-0.109-0.085-0.162c-0.177-0.332-0.354-0.658-0.534-0.987c-0.033-0.061-0.067-0.112-0.101-0.18
					c-0.177-0.317-0.356-0.641-0.542-0.967c-0.034-0.063-0.073-0.125-0.107-0.192c-0.186-0.316-0.372-0.637-0.561-0.96
					c-0.033-0.061-0.073-0.122-0.11-0.188c-0.189-0.317-0.384-0.638-0.582-0.958c-0.03-0.052-0.067-0.106-0.104-0.164
					c-0.201-0.329-0.406-0.662-0.616-0.985c-0.015-0.03-0.03-0.052-0.049-0.082c-0.899-1.399-1.856-2.783-2.866-4.131
					c-0.058-0.073-0.11-0.146-0.167-0.223c-0.174-0.226-0.357-0.454-0.531-0.687c-0.109-0.14-0.21-0.274-0.326-0.411
					c-0.158-0.204-0.323-0.402-0.488-0.604c-0.131-0.156-0.259-0.314-0.39-0.47c-0.159-0.192-0.317-0.378-0.476-0.555
					c-0.143-0.177-0.287-0.333-0.43-0.503c-0.156-0.177-0.314-0.345-0.473-0.524c-0.152-0.168-0.305-0.339-0.463-0.5
					c-0.152-0.174-0.311-0.333-0.47-0.497c-0.158-0.177-0.323-0.339-0.485-0.506c-0.162-0.159-0.32-0.317-0.479-0.473
					c-0.167-0.168-0.338-0.333-0.512-0.5c-0.155-0.149-0.317-0.296-0.476-0.448c-0.18-0.168-0.356-0.329-0.537-0.488
					c-0.162-0.144-0.32-0.283-0.485-0.427c-0.186-0.161-0.369-0.32-0.558-0.476c-0.162-0.137-0.323-0.277-0.494-0.411
					c-0.189-0.152-0.378-0.302-0.57-0.451c-0.168-0.132-0.333-0.263-0.503-0.388c-0.198-0.149-0.396-0.293-0.594-0.438
					c-0.168-0.125-0.338-0.247-0.509-0.366c-0.204-0.144-0.412-0.28-0.616-0.415c-0.174-0.118-0.348-0.231-0.519-0.341
					c-0.21-0.141-0.427-0.271-0.64-0.402c-0.171-0.104-0.345-0.214-0.521-0.314c-0.219-0.131-0.442-0.253-0.667-0.375
					c-0.174-0.104-0.345-0.198-0.521-0.29c-0.231-0.128-0.466-0.243-0.701-0.362c-0.17-0.089-0.338-0.177-0.512-0.259
					c-0.253-0.116-0.503-0.232-0.756-0.342c-0.168-0.073-0.33-0.152-0.491-0.223c-0.283-0.116-0.573-0.226-0.856-0.342
					c-0.131-0.045-0.259-0.104-0.387-0.152c-0.009-0.003-0.021-0.006-0.031-0.012c-0.433-0.159-0.862-0.314-1.305-0.451
					l-2.415,5.448l-0.747,1.691c-0.93,2.098-0.738,4.482,0.43,6.382l-3.979,2.963c-0.924,0.695-1.259,1.918-0.814,2.979l0.14,0.329
					c0.915,2.187,0.034,4.717-2.048,5.857l-2.723,1.49l-5.439-9.424c-0.344-0.604-0.875-1.058-1.5-1.316
					c-0.372-0.155-0.777-0.235-1.188-0.235c-1.336,0-2.388,0.805-2.854,1.872l-3.646,2.22c-0.573,0.345-0.924,0.921-1.019,1.536
					c-0.027-0.012-0.058-0.024-0.091-0.036c-0.119-0.055-0.241-0.106-0.363-0.165c-0.076-0.03-0.146-0.061-0.223-0.094
					c-0.119-0.052-0.241-0.104-0.369-0.162c-0.073-0.03-0.152-0.067-0.231-0.098c-0.125-0.052-0.247-0.104-0.372-0.155
					c-0.082-0.037-0.165-0.07-0.253-0.106c-0.125-0.052-0.256-0.104-0.381-0.162c-0.207-0.076-0.412-0.155-0.619-0.243
					c-0.083-0.031-0.165-0.064-0.247-0.095c-0.14-0.059-0.28-0.11-0.421-0.165c-0.079-0.03-0.155-0.061-0.234-0.092
					c-0.146-0.055-0.296-0.109-0.442-0.164c-0.073-0.03-0.146-0.058-0.226-0.082c-0.152-0.059-0.311-0.119-0.463-0.178
					c-0.07-0.021-0.14-0.045-0.21-0.072c-0.165-0.062-0.326-0.119-0.497-0.181c-0.064-0.021-0.128-0.042-0.189-0.063
					c-0.17-0.062-0.347-0.125-0.527-0.187c-0.052-0.015-0.106-0.036-0.165-0.055c-0.186-0.067-0.372-0.128-0.561-0.188
					c-0.04-0.013-0.083-0.024-0.122-0.04c-0.204-0.063-0.412-0.131-0.622-0.201c-0.009-0.003-0.021-0.009-0.027-0.013
					c-7.421-2.368-16.476-3.993-23.665-1.854c0.884,26.939-5.174,57.141-18.686,85.714c-0.399,0.845-0.808,1.683-1.216,2.512
					c-0.027,0.391-0.046,0.778-0.046,1.168h0.131h5.96h51.341h8.527l-1.954-7.601c-1.68-6.558-1.649-13.354-0.027-19.707
					c0.045,0.015,0.097,0.03,0.14,0.046c0.079,0.027,0.158,0.055,0.231,0.079c0.226,0.082,0.455,0.152,0.683,0.231
					c0.07,0.021,0.143,0.049,0.216,0.07c0.281,0.088,0.564,0.174,0.845,0.259c0.009,0,0.021,0.003,0.027,0.006
					c0.128,0.04,0.256,0.076,0.387,0.11c-0.36,1.894-0.549,3.848-0.549,5.845c0,17.323,14.043,31.362,31.363,31.362
					c17.32,0,31.36-14.039,31.36-31.362C433.838,219.549,425.72,208.274,414.213,203.628z M365.723,177.766l-1.96-3.504
					c-0.805-1.436-1.951-2.64-3.333-3.518c-0.015-0.01-0.03-0.024-0.045-0.031l2.003-1.219l4.43,7.674L365.723,177.766z
					 M402.479,251.29c-10.259,0-18.57-8.314-18.57-18.573c0-1.638,0.213-3.229,0.616-4.747c1.223-0.125,2.427-0.305,3.61-0.558
					c-0.61,1.655-0.945,3.438-0.945,5.305c0,8.445,6.841,15.289,15.29,15.289c8.442,0,15.29-6.844,15.29-15.289
					c0-7.32-5.146-13.437-12.012-14.937c0.854-0.868,1.671-1.777,2.433-2.734c7.458,2.408,12.86,9.411,12.86,17.671
					C421.049,242.976,412.735,251.29,402.479,251.29z"/>
			</g>
		</g>
		<g>
			<linearGradient id="SVGID_6_" gradientUnits="userSpaceOnUse" x1="489.6294" y1="385.1221" x2="81.4277" y2="385.1221">
				<stop  offset="0" style="stop-color:#26A9E0"/>
				<stop  offset="1" style="stop-color:#2F80ED"/>
			</linearGradient>
			<path fill="url(#SVGID_6_)" d="M90.207,410.234c-3.759,0-7.137-0.618-10.128-1.856c-2.994-1.241-5.5-2.981-7.524-5.229
				c-2.027-2.247-3.457-4.905-4.286-7.981c-0.836-3.073-1-6.421-0.494-10.046c0.515-3.668,1.616-7.027,3.305-10.082
				c1.686-3.049,3.854-5.695,6.509-7.942c2.652-2.25,5.649-3.994,8.985-5.231c3.338-1.238,6.89-1.857,10.649-1.857
				c3.808,0,7.195,0.619,10.165,1.857c2.969,1.237,5.466,2.981,7.491,5.231c2.027,2.247,3.458,4.894,4.293,7.942
				c0.835,3.055,0.997,6.414,0.481,10.082c-0.506,3.625-1.604,6.973-3.292,10.046c-1.692,3.076-3.863,5.734-6.515,7.981
				c-2.653,2.247-5.638,3.987-8.955,5.229C97.576,409.616,94.015,410.234,90.207,410.234z M92.128,396.476
				c2.067,0,3.979-0.481,5.744-1.445c1.762-0.963,3.231-2.305,4.415-4.024c1.18-1.723,1.927-3.683,2.232-5.884
				c0.308-2.201,0.109-4.162-0.589-5.884c-0.701-1.717-1.795-3.062-3.29-4.024c-1.497-0.964-3.274-1.445-5.338-1.445
				s-3.979,0.481-5.741,1.445c-1.762,0.963-3.235,2.308-4.415,4.024c-1.183,1.722-1.927,3.683-2.232,5.884
				c-0.308,2.201-0.113,4.161,0.588,5.884c0.698,1.72,1.796,3.062,3.29,4.024C88.287,395.994,90.067,396.476,92.128,396.476z"/>
			<linearGradient id="SVGID_7_" gradientUnits="userSpaceOnUse" x1="489.6187" y1="385.4658" x2="81.4282" y2="385.4659">
				<stop  offset="0" style="stop-color:#26A9E0"/>
				<stop  offset="1" style="stop-color:#2F80ED"/>
			</linearGradient>
			<path fill="url(#SVGID_7_)" d="M133.856,409.549l4.96-35.503h-14.863l1.769-12.662h44.997l-1.769,12.662h-15.274l-4.957,35.503
				H133.856z"/>
			<linearGradient id="SVGID_8_" gradientUnits="userSpaceOnUse" x1="489.6328" y1="385.1221" x2="81.4265" y2="385.1221">
				<stop  offset="0" style="stop-color:#26A9E0"/>
				<stop  offset="1" style="stop-color:#2F80ED"/>
			</linearGradient>
			<path fill="url(#SVGID_8_)" d="M192.588,410.234c-3.762,0-7.137-0.618-10.131-1.856c-2.991-1.241-5.5-2.981-7.524-5.229
				c-2.027-2.247-3.457-4.905-4.286-7.981c-0.833-3.073-0.997-6.421-0.491-10.046c0.513-3.668,1.613-7.027,3.302-10.082
				c1.687-3.049,3.857-5.695,6.513-7.942c2.652-2.25,5.646-3.994,8.984-5.231c3.339-1.238,6.887-1.857,10.649-1.857
				c3.805,0,7.195,0.619,10.165,1.857c2.966,1.237,5.466,2.981,7.491,5.231c2.027,2.247,3.454,4.894,4.29,7.942
				c0.835,3.055,0.997,6.414,0.485,10.082c-0.506,3.625-1.604,6.973-3.296,10.046c-1.689,3.076-3.86,5.734-6.512,7.981
				s-5.64,3.987-8.954,5.229C199.957,409.616,196.396,410.234,192.588,410.234z M194.509,396.476c2.064,0,3.979-0.481,5.741-1.445
				c1.762-0.963,3.235-2.305,4.415-4.024c1.183-1.723,1.927-3.683,2.232-5.884c0.311-2.201,0.113-4.162-0.589-5.884
				c-0.698-1.717-1.795-3.062-3.289-4.024c-1.494-0.964-3.271-1.445-5.339-1.445c-2.064,0-3.976,0.481-5.741,1.445
				c-1.762,0.963-3.232,2.308-4.415,4.024c-1.18,1.722-1.924,3.683-2.231,5.884c-0.305,2.201-0.11,4.161,0.588,5.884
				c0.701,1.72,1.799,3.062,3.293,4.024C190.668,395.994,192.445,396.476,194.509,396.476z"/>
			<linearGradient id="SVGID_9_" gradientUnits="userSpaceOnUse" x1="489.6445" y1="385.1221" x2="81.4161" y2="385.1221">
				<stop  offset="0" style="stop-color:#26A9E0"/>
				<stop  offset="1" style="stop-color:#2F80ED"/>
			</linearGradient>
			<path fill="url(#SVGID_9_)" d="M243.64,410.234c-5.458,0-9.829-0.881-13.116-2.646c-3.287-1.769-5.958-4.141-8.019-7.125
				l9.945-9.632c1.884,2.937,4.012,4.875,6.378,5.814c2.369,0.942,4.652,1.411,6.857,1.411c1.329,0,2.433-0.183,3.311-0.552
				c0.875-0.365,1.381-1.03,1.515-1.994c0.104-0.731-0.11-1.341-0.637-1.822c-0.53-0.482-1.231-0.872-2.106-1.171
				c-0.878-0.296-1.763-0.549-2.646-0.757c-0.891-0.207-1.671-0.381-2.338-0.515c-5.369-1.283-9.235-3.165-11.595-5.644
				c-2.363-2.476-3.25-5.802-2.667-9.976c0.326-2.342,1.161-4.473,2.509-6.399s3.024-3.579,5.027-4.954
				c2.003-1.375,4.217-2.433,6.634-3.165c2.418-0.734,4.869-1.101,7.345-1.101c3.622,0,6.604,0.333,8.945,0.997
				c2.335,0.665,4.244,1.616,5.723,2.857c1.479,1.237,2.698,2.68,3.662,4.332l-9.832,8.326c-1.308-1.47-2.778-2.533-4.406-3.198
				s-3.311-1-5.055-1c-1.561,0-2.811,0.183-3.756,0.552c-0.945,0.366-1.481,0.988-1.604,1.856c-0.11,0.78,0.253,1.399,1.085,1.857
				c0.829,0.46,1.799,0.816,2.912,1.066c1.11,0.253,2.024,0.448,2.741,0.586c3.256,0.643,6.119,1.573,8.588,2.786
				c2.466,1.217,4.302,2.866,5.5,4.957c1.198,2.086,1.564,4.802,1.098,8.152c-0.494,3.531-1.79,6.491-3.89,8.872
				c-2.101,2.388-4.723,4.189-7.875,5.402C250.72,409.625,247.311,410.234,243.64,410.234z"/>
			<linearGradient id="SVGID_10_" gradientUnits="userSpaceOnUse" x1="489.6274" y1="385.4658" x2="81.4283" y2="385.4659">
				<stop  offset="0" style="stop-color:#26A9E0"/>
				<stop  offset="1" style="stop-color:#2F80ED"/>
			</linearGradient>
			<path fill="url(#SVGID_10_)" d="M264.101,409.549l26.061-48.165h11.698l12.469,48.165h-14.726l-1.616-7.158h-15.823l-3.613,7.158
				H264.101z M289.198,388.494l-1.906,3.786h8.396l-0.851-3.786c-0.43-1.836-0.771-3.339-1.021-4.506
				c-0.25-1.171-0.448-2.372-0.594-3.616c-0.543,1.244-1.113,2.445-1.71,3.616C290.912,385.155,290.14,386.658,289.198,388.494z"/>
			<linearGradient id="SVGID_11_" gradientUnits="userSpaceOnUse" x1="489.6284" y1="385.4658" x2="81.4274" y2="385.4659">
				<stop  offset="0" style="stop-color:#26A9E0"/>
				<stop  offset="1" style="stop-color:#2F80ED"/>
			</linearGradient>
			<path fill="url(#SVGID_11_)" d="M318.457,409.549l6.726-48.165h14.86l-4.957,35.503h20.643l-1.768,12.662H318.457z"/>
			<linearGradient id="SVGID_12_" gradientUnits="userSpaceOnUse" x1="489.6235" y1="385.4658" x2="81.4368" y2="385.4659">
				<stop  offset="0" style="stop-color:#26A9E0"/>
				<stop  offset="1" style="stop-color:#2F80ED"/>
			</linearGradient>
			<path fill="url(#SVGID_12_)" d="M360.838,409.549l6.729-48.165h35.982l-1.68,12.043h-21.741l-0.856,6.122h19.198l-1.58,11.283
				h-19.195l-0.933,6.674h22.982l-1.683,12.043H360.838z"/>
			<linearGradient id="SVGID_13_" gradientUnits="userSpaceOnUse" x1="489.6323" y1="385.1221" x2="81.4039" y2="385.1221">
				<stop  offset="0" style="stop-color:#26A9E0"/>
				<stop  offset="1" style="stop-color:#2F80ED"/>
			</linearGradient>
			<path fill="url(#SVGID_13_)" d="M423.561,410.234c-5.458,0-9.83-0.881-13.116-2.646c-3.287-1.769-5.958-4.141-8.019-7.125
				l9.945-9.632c1.884,2.937,4.012,4.875,6.378,5.814c2.369,0.942,4.652,1.411,6.856,1.411c1.33,0,2.433-0.183,3.311-0.552
				c0.875-0.365,1.381-1.03,1.516-1.994c0.104-0.731-0.11-1.341-0.637-1.822c-0.531-0.482-1.232-0.872-2.107-1.171
				c-0.878-0.296-1.762-0.549-2.646-0.757c-0.89-0.207-1.67-0.381-2.338-0.515c-5.369-1.283-9.234-3.165-11.594-5.644
				c-2.363-2.476-3.25-5.802-2.668-9.976c0.326-2.342,1.162-4.473,2.509-6.399s3.024-3.579,5.027-4.954s4.217-2.433,6.634-3.165
				c2.417-0.734,4.869-1.101,7.344-1.101c3.622,0,6.604,0.333,8.945,0.997c2.335,0.665,4.244,1.616,5.723,2.857
				c1.479,1.237,2.698,2.68,3.662,4.332l-9.833,8.326c-1.308-1.47-2.777-2.533-4.405-3.198s-3.311-1-5.055-1
				c-1.561,0-2.811,0.183-3.756,0.552c-0.945,0.366-1.482,0.988-1.604,1.856c-0.11,0.78,0.253,1.399,1.085,1.857
				c0.829,0.46,1.798,0.816,2.911,1.066c1.11,0.253,2.024,0.448,2.741,0.586c3.256,0.643,6.119,1.573,8.588,2.786
				c2.466,1.217,4.302,2.866,5.5,4.957c1.198,2.086,1.564,4.802,1.098,8.152c-0.494,3.531-1.79,6.491-3.891,8.872
				c-2.101,2.388-4.722,4.189-7.875,5.402C430.64,409.625,427.231,410.234,423.561,410.234z"/>
		</g>
	</g>
</g>
</svg>
