<?xml version="1.0" encoding="utf-8"?>
<!-- Generator: Adobe Illustrator 16.0.0, SVG Export Plug-In . SVG Version: 6.00 Build 0)  -->
<!DOCTYPE svg PUBLIC "-//W3C//DTD SVG 1.1//EN" "http://www.w3.org/Graphics/SVG/1.1/DTD/svg11.dtd">
<svg version="1.1" id="Layer_1" xmlns="http://www.w3.org/2000/svg" xmlns:xlink="http://www.w3.org/1999/xlink" x="0px" y="0px"
	 width="1024px" height="500px" viewBox="0 0 1024 500" enable-background="new 0 0 1024 500" xml:space="preserve">
<rect fill="#FFFFFF" width="1024" height="500"/>
<g>
	<g>
		<linearGradient id="SVGID_1_" gradientUnits="userSpaceOnUse" x1="184.9956" y1="241.3818" x2="184.9956" y2="241.3818">
			<stop  offset="0" style="stop-color:#26A9E0"/>
			<stop  offset="1" style="stop-color:#2F80ED"/>
		</linearGradient>
		<path fill="url(#SVGID_1_)" d="M184.996,241.382"/>
		<linearGradient id="SVGID_2_" gradientUnits="userSpaceOnUse" x1="123.3311" y1="250" x2="879.3056" y2="250">
			<stop  offset="0" style="stop-color:#26A9E0"/>
			<stop  offset="1" style="stop-color:#2F80ED"/>
		</linearGradient>
		<path fill="url(#SVGID_2_)" d="M269.707,161.205c-29.857-19.244-72.867,4.906-96.061,53.941
			c-1.443,3.054-4.571,9.965-5.794,13.058c0,0,9.424-4.641,9.816-5.466c0.498-1.059,2.804-5.938,3.322-6.968
			c21.381-42.543,58.371-63.702,82.756-47.982c24.969,16.099,25.968,65.143,4.857,109.767
			c-21.107,44.629-56.325,67.939-81.297,51.844c-10.222-6.589-16.889-18.84-19.792-34.047c-2.541,0.33-5.002,0.057-6.792-0.29
			c3.199,19.267,11.631,35.124,24.988,43.733c29.854,19.246,72.867-4.909,96.061-53.947
			C304.964,235.812,299.564,180.453,269.707,161.205z"/>
		<g>
			<linearGradient id="SVGID_3_" gradientUnits="userSpaceOnUse" x1="123.3306" y1="271.8613" x2="879.3129" y2="271.8613">
				<stop  offset="0" style="stop-color:#26A9E0"/>
				<stop  offset="1" style="stop-color:#2F80ED"/>
			</linearGradient>
			<path fill="url(#SVGID_3_)" d="M165.343,252.448c-10.845,0-19.636,8.69-19.636,19.415c0,10.719,8.791,19.412,19.636,19.412
				c10.844,0,19.635-8.693,19.635-19.412C184.979,261.139,176.187,252.448,165.343,252.448z"/>
			<g>
				<linearGradient id="SVGID_4_" gradientUnits="userSpaceOnUse" x1="123.3311" y1="248.5449" x2="879.3083" y2="248.5449">
					<stop  offset="0" style="stop-color:#26A9E0"/>
					<stop  offset="1" style="stop-color:#2F80ED"/>
				</linearGradient>
				<path fill="url(#SVGID_4_)" d="M165.343,247.762c13.41,0,24.322,10.811,24.322,24.102c0,4.407-1.221,8.531-3.317,12.092h59.949
					c-19.643,32.811-43.466,39.45-57.718,31.843c-11.973-6.39-15.505-17.886-16.105-20.231c1.025,4.441,2.204,8.647,3.677,12.504
					c5.342,12.587,15.073,21.739,28.425,21.739c25.322,0,48.298-29.962,59.789-54.26c20.224-42.751,19.314-89.333-3.159-103.822
					c-19.514-12.576-48.579,2.438-68.77,33.496c35.188-47.999,68.746-38.475,74.848-5.923c0.72,3.84,1.089,7.997,1.138,12.374
					c-8.642-1.215-16.441-1.951-23.42-2.362c-27.481-1.623-27.481,2.841-68.167,25.962c-52.104,0.513-69.949,21.312-69.949,21.312
					v5.348c4.626-1.836,14.141-4.929,25.696-4.929l-8.567,16.795c0,0-11.249,1.416-17.129,2.521v7.634h37.454
					c-2.096-3.561-3.317-7.685-3.317-12.092C141.021,258.572,151.931,247.762,165.343,247.762z M228.87,217.748
					c6.611-1.349,21.149-0.763,39.308,1.942c-0.407,5.642-1.308,11.561-2.656,17.61c-17.179,0.244-32.95-0.313-48.164-0.063
					c1.114-1.865,1.734-4.208-0.351-5.597c-2.723-1.817-7.483,1.126-11.054,5.973c-5.368,0.277-10.696,0.701-16.025,1.368
					C189.928,238.982,215.966,220.379,228.87,217.748z"/>
			</g>
		</g>
		<g>
			<linearGradient id="SVGID_5_" gradientUnits="userSpaceOnUse" x1="123.3306" y1="251.0332" x2="879.3062" y2="251.0332">
				<stop  offset="0" style="stop-color:#26A9E0"/>
				<stop  offset="1" style="stop-color:#2F80ED"/>
			</linearGradient>
			<path fill="url(#SVGID_5_)" d="M364.363,249.551c0.255-0.83,0.476-1.674,0.65-2.533c-0.248-0.098-0.499-0.188-0.748-0.276
				c-0.049-0.017-0.099-0.035-0.148-0.052c-1.064-0.371-2.157-0.678-3.278-0.914c-0.054-0.01-0.11-0.019-0.164-0.032
				c-0.18-0.037-0.356-0.069-0.537-0.104c-0.068-0.011-0.135-0.021-0.202-0.035c-0.18-0.029-0.359-0.059-0.539-0.089
				c-0.056-0.005-0.113-0.016-0.173-0.023c-0.473-0.07-0.949-0.127-1.43-0.172c-0.07-0.003-0.137-0.012-0.207-0.017
				c-0.172-0.014-0.343-0.027-0.513-0.037c-0.082-0.003-0.162-0.012-0.244-0.017c-0.17-0.006-0.338-0.016-0.512-0.019
				c-0.072-0.003-0.145-0.009-0.22-0.011c-0.244-0.006-0.483-0.011-0.727-0.011c-2.057,0-4.059,0.238-5.983,0.68
				c2.036-0.704,4.166-1.21,6.373-1.488c11.989,0,10.367-7.644,7.798-13.664c-0.435-1.02-0.908-2.067-1.419-3.129
				c-0.003-0.008-0.008-0.019-0.012-0.029c-0.132-0.271-0.263-0.543-0.4-0.817c-0.01-0.024-0.023-0.045-0.034-0.069
				c-0.128-0.261-0.264-0.526-0.397-0.79c-0.018-0.035-0.035-0.067-0.053-0.1c-0.133-0.261-0.266-0.514-0.4-0.771
				c-0.023-0.04-0.044-0.083-0.066-0.124c-0.133-0.252-0.269-0.502-0.407-0.754c-0.027-0.047-0.051-0.089-0.077-0.137
				c-0.137-0.248-0.274-0.495-0.417-0.742c-0.027-0.049-0.056-0.097-0.082-0.146c-0.141-0.244-0.283-0.492-0.43-0.738
				c-0.026-0.047-0.056-0.095-0.083-0.143c-0.146-0.245-0.295-0.489-0.446-0.736c-0.024-0.041-0.051-0.084-0.078-0.127
				c-0.156-0.25-0.313-0.502-0.473-0.753c-0.012-0.023-0.025-0.039-0.039-0.063c-0.689-1.072-1.421-2.134-2.195-3.163
				c-0.043-0.057-0.083-0.115-0.127-0.172c-0.136-0.175-0.273-0.349-0.407-0.524c-0.083-0.107-0.163-0.212-0.249-0.317
				c-0.124-0.155-0.25-0.306-0.376-0.462c-0.1-0.12-0.197-0.241-0.298-0.362c-0.12-0.146-0.242-0.285-0.364-0.424
				c-0.111-0.133-0.22-0.257-0.33-0.385c-0.118-0.135-0.24-0.266-0.361-0.401c-0.117-0.128-0.235-0.257-0.354-0.384
				c-0.118-0.131-0.237-0.255-0.358-0.382c-0.124-0.131-0.249-0.258-0.374-0.387c-0.122-0.121-0.244-0.241-0.365-0.362
				c-0.129-0.127-0.26-0.256-0.394-0.382c-0.12-0.115-0.242-0.229-0.366-0.345c-0.137-0.125-0.271-0.249-0.408-0.373
				c-0.125-0.109-0.248-0.218-0.374-0.328c-0.141-0.123-0.282-0.244-0.426-0.365c-0.125-0.102-0.25-0.209-0.377-0.312
				c-0.145-0.118-0.292-0.233-0.439-0.347c-0.127-0.1-0.255-0.201-0.384-0.298c-0.151-0.115-0.303-0.226-0.456-0.337
				c-0.13-0.093-0.259-0.188-0.389-0.278c-0.158-0.11-0.315-0.216-0.473-0.32c-0.133-0.088-0.265-0.177-0.396-0.261
				c-0.161-0.107-0.326-0.206-0.49-0.306c-0.133-0.081-0.265-0.165-0.399-0.242c-0.169-0.099-0.342-0.196-0.511-0.29
				c-0.134-0.075-0.266-0.15-0.4-0.221c-0.177-0.097-0.359-0.186-0.539-0.276c-0.131-0.067-0.261-0.135-0.392-0.197
				c-0.192-0.09-0.386-0.177-0.58-0.263c-0.126-0.057-0.251-0.116-0.375-0.169c-0.217-0.092-0.439-0.178-0.658-0.264
				c-0.098-0.038-0.196-0.08-0.295-0.115c-0.007-0.006-0.018-0.009-0.024-0.012c-0.331-0.12-0.661-0.238-0.998-0.343l-1.85,4.171
				l-0.574,1.298c-0.711,1.606-0.564,3.434,0.331,4.891l-3.049,2.271c-0.709,0.529-0.965,1.467-0.623,2.28l0.106,0.254
				c0.702,1.674,0.027,3.611-1.568,4.483l-2.086,1.144l-4.168-7.219c-0.265-0.462-0.671-0.812-1.148-1.007
				c-0.285-0.121-0.596-0.184-0.913-0.184c-1.022,0-1.829,0.615-2.186,1.435l-2.793,1.701c-0.44,0.266-0.709,0.708-0.781,1.178
				c-0.021-0.008-0.044-0.02-0.068-0.029c-0.091-0.041-0.184-0.081-0.278-0.124c-0.059-0.024-0.115-0.049-0.172-0.073
				c-0.092-0.042-0.186-0.083-0.281-0.123c-0.06-0.024-0.12-0.051-0.179-0.075c-0.095-0.041-0.189-0.08-0.286-0.121
				c-0.062-0.026-0.126-0.054-0.192-0.077c-0.096-0.041-0.197-0.082-0.293-0.124c-0.157-0.063-0.314-0.124-0.473-0.188
				c-0.064-0.024-0.126-0.051-0.188-0.075c-0.107-0.043-0.215-0.083-0.322-0.124c-0.06-0.023-0.119-0.045-0.18-0.069
				c-0.111-0.046-0.226-0.086-0.338-0.129c-0.057-0.021-0.115-0.043-0.172-0.062c-0.12-0.047-0.239-0.092-0.357-0.135
				c-0.054-0.019-0.108-0.037-0.162-0.057c-0.126-0.048-0.25-0.091-0.378-0.137c-0.05-0.016-0.098-0.035-0.145-0.051
				c-0.133-0.046-0.268-0.095-0.405-0.14c-0.04-0.014-0.083-0.029-0.126-0.043c-0.144-0.051-0.285-0.098-0.429-0.146
				c-0.031-0.011-0.063-0.021-0.096-0.029c-0.156-0.051-0.314-0.103-0.475-0.156c-0.007-0.003-0.017-0.006-0.023-0.009
				c-5.684-1.815-12.622-3.061-18.129-1.421c0.675,20.638-3.965,43.779-14.319,65.67c-0.306,0.647-0.619,1.29-0.933,1.929
				c-0.02,0.296-0.033,0.595-0.033,0.896h0.1h4.568h39.336h6.534l-1.497-5.826c-1.289-5.025-1.265-10.23-0.021-15.102
				c0.035,0.013,0.074,0.023,0.108,0.038c0.058,0.021,0.118,0.039,0.178,0.061c0.172,0.062,0.347,0.118,0.521,0.178
				c0.053,0.017,0.11,0.035,0.165,0.054c0.216,0.067,0.433,0.135,0.648,0.199c0.006,0,0.015,0.003,0.021,0.006
				c0.098,0.029,0.196,0.056,0.295,0.083c-0.274,1.451-0.419,2.947-0.419,4.477c0,13.272,10.759,24.029,24.029,24.029
				s24.029-10.757,24.029-24.029C379.4,261.748,373.18,253.111,364.363,249.551z M327.21,229.738l-1.502-2.687
				c-0.614-1.1-1.496-2.024-2.553-2.695c-0.012-0.009-0.023-0.016-0.036-0.024l1.536-0.935l3.396,5.882L327.21,229.738z
				 M355.372,286.067c-7.859,0-14.228-6.369-14.228-14.229c0-1.255,0.163-2.475,0.47-3.636c0.938-0.097,1.861-0.237,2.767-0.43
				c-0.466,1.268-0.723,2.635-0.723,4.065c0,6.47,5.243,11.716,11.714,11.716c6.469,0,11.716-5.246,11.716-11.716
				c0-5.608-3.943-10.295-9.205-11.442c0.655-0.666,1.28-1.365,1.864-2.096c5.716,1.844,9.855,7.207,9.855,13.538
				C369.602,279.698,363.23,286.067,355.372,286.067z"/>
		</g>
	</g>
	<g>
		<linearGradient id="SVGID_6_" gradientUnits="userSpaceOnUse" x1="123.3311" y1="257.916" x2="879.3037" y2="257.916">
			<stop  offset="0" style="stop-color:#26A9E0"/>
			<stop  offset="1" style="stop-color:#2F80ED"/>
		</linearGradient>
		<path fill="url(#SVGID_6_)" d="M422.192,291.012c-4.957,0-9.406-0.814-13.35-2.445c-3.943-1.634-7.249-3.932-9.918-6.893
			c-2.669-2.961-4.552-6.468-5.649-10.518c-1.098-4.049-1.312-8.463-0.645-13.24c0.675-4.835,2.125-9.262,4.35-13.283
			c2.223-4.02,5.083-7.51,8.58-10.475c3.496-2.959,7.444-5.258,11.844-6.89c4.398-1.632,9.075-2.448,14.033-2.448
			c5.018,0,9.482,0.816,13.396,2.448c3.911,1.632,7.203,3.931,9.873,6.89c2.67,2.965,4.553,6.455,5.656,10.475
			c1.101,4.021,1.313,8.448,0.639,13.283c-0.667,4.777-2.116,9.191-4.343,13.24c-2.23,4.05-5.09,7.557-8.588,10.518
			c-3.497,2.961-7.43,5.259-11.798,6.893C431.902,290.197,427.209,291.012,422.192,291.012z M424.725,272.879
			c2.721,0,5.243-0.635,7.566-1.906c2.322-1.268,4.263-3.036,5.818-5.304c1.555-2.267,2.537-4.851,2.941-7.753
			c0.406-2.901,0.147-5.484-0.775-7.753c-0.923-2.266-2.37-4.034-4.337-5.304c-1.97-1.27-4.313-1.904-7.034-1.904
			c-2.721,0-5.243,0.635-7.565,1.904c-2.323,1.27-4.263,3.038-5.819,5.304c-1.557,2.269-2.536,4.852-2.941,7.753
			c-0.406,2.902-0.147,5.486,0.776,7.753c0.922,2.268,2.368,4.036,4.337,5.304C419.66,272.244,422.006,272.879,424.725,272.879z"/>
		<linearGradient id="SVGID_7_" gradientUnits="userSpaceOnUse" x1="123.3301" y1="258.3691" x2="879.3058" y2="258.3691">
			<stop  offset="0" style="stop-color:#26A9E0"/>
			<stop  offset="1" style="stop-color:#2F80ED"/>
		</linearGradient>
		<path fill="url(#SVGID_7_)" d="M479.718,290.106l6.535-46.789h-19.586l2.331-16.685h59.302l-2.331,16.685h-20.13l-6.535,46.789
			H479.718z"/>
		<linearGradient id="SVGID_8_" gradientUnits="userSpaceOnUse" x1="123.3271" y1="257.916" x2="879.3052" y2="257.916">
			<stop  offset="0" style="stop-color:#26A9E0"/>
			<stop  offset="1" style="stop-color:#2F80ED"/>
		</linearGradient>
		<path fill="url(#SVGID_8_)" d="M557.118,291.012c-4.958,0-9.407-0.814-13.351-2.445c-3.942-1.634-7.249-3.932-9.918-6.893
			c-2.67-2.961-4.553-6.468-5.649-10.518c-1.098-4.049-1.312-8.463-0.645-13.24c0.676-4.835,2.125-9.262,4.35-13.283
			c2.223-4.02,5.083-7.51,8.58-10.475c3.497-2.959,7.444-5.258,11.843-6.89s9.078-2.448,14.034-2.448
			c5.017,0,9.482,0.816,13.396,2.448c3.912,1.632,7.204,3.931,9.873,6.89c2.669,2.965,4.553,6.455,5.656,10.475
			c1.101,4.021,1.313,8.448,0.638,13.283c-0.667,4.777-2.115,9.191-4.342,13.24c-2.229,4.05-5.09,7.557-8.588,10.518
			c-3.497,2.961-7.43,5.259-11.798,6.893C566.827,290.197,562.134,291.012,557.118,291.012z M559.65,272.879
			c2.721,0,5.242-0.635,7.566-1.906c2.322-1.268,4.262-3.036,5.818-5.304c1.556-2.267,2.537-4.851,2.941-7.753
			c0.406-2.901,0.146-5.484-0.776-7.753c-0.923-2.266-2.369-4.034-4.337-5.304c-1.968-1.27-4.313-1.904-7.034-1.904
			c-2.72,0-5.243,0.635-7.564,1.904c-2.325,1.27-4.264,3.038-5.819,5.304c-1.556,2.269-2.537,4.852-2.941,7.753
			c-0.405,2.902-0.147,5.486,0.776,7.753c0.922,2.268,2.368,4.036,4.337,5.304C554.584,272.244,556.929,272.879,559.65,272.879z"/>
		<linearGradient id="SVGID_9_" gradientUnits="userSpaceOnUse" x1="123.3262" y1="257.916" x2="879.3084" y2="257.916">
			<stop  offset="0" style="stop-color:#26A9E0"/>
			<stop  offset="1" style="stop-color:#2F80ED"/>
		</linearGradient>
		<path fill="url(#SVGID_9_)" d="M624.399,291.012c-7.195,0-12.957-1.162-17.286-3.489c-4.331-2.327-7.852-5.453-10.568-9.386
			l13.108-12.693c2.481,3.87,5.283,6.423,8.405,7.661c3.121,1.239,6.133,1.859,9.035,1.859c1.752,0,3.207-0.242,4.362-0.726
			c1.156-0.483,1.823-1.359,2-2.63c0.135-0.965-0.146-1.769-0.843-2.403c-0.698-0.634-1.623-1.147-2.777-1.54
			c-1.155-0.394-2.317-0.727-3.487-1c-1.172-0.271-2.197-0.497-3.079-0.68c-7.079-1.689-12.173-4.17-15.283-7.435
			c-3.112-3.264-4.282-7.646-3.514-13.147c0.431-3.084,1.534-5.894,3.31-8.434c1.773-2.538,3.982-4.713,6.624-6.526
			c2.642-1.814,5.555-3.204,8.744-4.171c3.187-0.968,6.413-1.452,9.678-1.452c4.774,0,8.703,0.438,11.786,1.315
			c3.081,0.875,5.596,2.13,7.544,3.762c1.949,1.634,3.556,3.536,4.824,5.713l-12.958,10.972c-1.725-1.934-3.658-3.339-5.803-4.217
			c-2.145-0.875-4.366-1.313-6.663-1.313c-2.055,0-3.706,0.241-4.952,0.726c-1.247,0.483-1.949,1.301-2.109,2.448
			c-0.144,1.027,0.331,1.845,1.426,2.448c1.094,0.604,2.373,1.073,3.838,1.404c1.464,0.334,2.668,0.589,3.61,0.771
			c4.294,0.847,8.067,2.072,11.32,3.671c3.251,1.604,5.668,3.78,7.249,6.53c1.58,2.752,2.062,6.333,1.446,10.744
			c-0.65,4.655-2.359,8.555-5.125,11.697c-2.767,3.143-6.227,5.518-10.379,7.118C633.729,290.211,629.235,291.012,624.399,291.012z"
			/>
		<linearGradient id="SVGID_10_" gradientUnits="userSpaceOnUse" x1="123.3262" y1="258.3691" x2="879.3073" y2="258.3691">
			<stop  offset="0" style="stop-color:#26A9E0"/>
			<stop  offset="1" style="stop-color:#2F80ED"/>
		</linearGradient>
		<path fill="url(#SVGID_10_)" d="M651.364,290.106l34.344-63.474h15.416l16.434,63.474h-19.405l-2.129-9.43h-20.855l-4.763,9.43
			H651.364z M684.437,262.359l-2.51,4.988h11.063l-1.118-4.988c-0.569-2.416-1.017-4.397-1.347-5.939
			c-0.329-1.541-0.591-3.129-0.786-4.759c-0.712,1.63-1.463,3.218-2.251,4.759C686.698,257.962,685.681,259.943,684.437,262.359z"/>
		<linearGradient id="SVGID_11_" gradientUnits="userSpaceOnUse" x1="123.333" y1="258.3691" x2="879.3057" y2="258.3691">
			<stop  offset="0" style="stop-color:#26A9E0"/>
			<stop  offset="1" style="stop-color:#2F80ED"/>
		</linearGradient>
		<path fill="url(#SVGID_11_)" d="M722.997,290.106l8.864-63.474h19.585l-6.534,46.788h27.203l-2.33,16.686H722.997z"/>
		<linearGradient id="SVGID_12_" gradientUnits="userSpaceOnUse" x1="123.3389" y1="258.3691" x2="879.3029" y2="258.3691">
			<stop  offset="0" style="stop-color:#26A9E0"/>
			<stop  offset="1" style="stop-color:#2F80ED"/>
		</linearGradient>
		<path fill="url(#SVGID_12_)" d="M778.853,290.106l8.864-63.474h47.423l-2.215,15.869h-28.653l-1.127,8.07h25.298l-2.077,14.871
			h-25.299l-1.228,8.795h30.285l-2.216,15.868H778.853z"/>
		<linearGradient id="SVGID_13_" gradientUnits="userSpaceOnUse" x1="123.3301" y1="257.916" x2="879.3062" y2="257.916">
			<stop  offset="0" style="stop-color:#26A9E0"/>
			<stop  offset="1" style="stop-color:#2F80ED"/>
		</linearGradient>
		<path fill="url(#SVGID_13_)" d="M861.512,291.012c-7.195,0-12.956-1.162-17.286-3.489s-7.852-5.453-10.567-9.386l13.107-12.693
			c2.481,3.87,5.283,6.423,8.405,7.661c3.121,1.239,6.133,1.859,9.035,1.859c1.752,0,3.207-0.242,4.363-0.726
			c1.155-0.483,1.822-1.359,1.999-2.63c0.135-0.965-0.147-1.769-0.844-2.403c-0.697-0.634-1.623-1.147-2.777-1.54
			c-1.155-0.394-2.317-0.727-3.487-1c-1.172-0.271-2.198-0.497-3.079-0.68c-7.078-1.689-12.173-4.17-15.283-7.435
			c-3.112-3.264-4.282-7.646-3.514-13.147c0.43-3.084,1.533-5.894,3.309-8.434c1.774-2.538,3.983-4.713,6.625-6.526
			c2.641-1.814,5.555-3.204,8.743-4.171c3.187-0.968,6.414-1.452,9.679-1.452c4.774,0,8.702,0.438,11.785,1.315
			c3.081,0.875,5.596,2.13,7.544,3.762c1.949,1.634,3.556,3.536,4.824,5.713l-12.958,10.972c-1.725-1.934-3.658-3.339-5.804-4.217
			c-2.144-0.875-4.366-1.313-6.662-1.313c-2.056,0-3.706,0.241-4.952,0.726c-1.247,0.483-1.95,1.301-2.109,2.448
			c-0.144,1.027,0.331,1.845,1.425,2.448c1.095,0.604,2.374,1.073,3.839,1.404c1.464,0.334,2.667,0.589,3.61,0.771
			c4.294,0.847,8.067,2.072,11.32,3.671c3.251,1.604,5.668,3.78,7.249,6.53c1.58,2.752,2.063,6.333,1.446,10.744
			c-0.65,4.655-2.359,8.555-5.124,11.697c-2.768,3.143-6.228,5.518-10.379,7.118C870.842,290.211,866.348,291.012,861.512,291.012z"
			/>
	</g>
</g>
</svg>
